<?xml version="1.0" encoding="UTF-8" standalone="no"?>
<!DOCTYPE svg PUBLIC "-//W3C//DTD SVG 1.1//EN" "http://www.w3.org/Graphics/SVG/1.1/DTD/svg11.dtd">
<svg width="100%" height="100%" viewBox="0 0 300 200" version="1.1" xmlns="http://www.w3.org/2000/svg" xmlns:xlink="http://www.w3.org/1999/xlink" xml:space="preserve" style="fill-rule:evenodd;clip-rule:evenodd;stroke-linecap:round;stroke-linejoin:round;stroke-miterlimit:1.41421;">
    <g id="Layer1" transform="matrix(1,0,0,1,0,35.7194)">
        <g transform="matrix(1.08268,0.479637,-0.858472,0.750643,168.654,31.1029)">
            <rect x="0" y="0" width="30" height="150" style="fill:rgb(255,205,0);stroke-width:1.13px;stroke:black;"/>
        </g>
        <g transform="matrix(1.08268,0.479637,-0.858472,0.750643,168.654,31.1029)">
            <rect x="30" y="0" width="70" height="30" style="fill:rgb(255,228,0);stroke-width:1.13px;stroke:black;"/>
        </g>
        <g transform="matrix(1.08268,0.479637,-0.858472,0.750643,168.654,31.1029)">
            <rect x="30" y="60" width="40" height="30" style="fill:rgb(255,192,0);stroke-width:1.13px;stroke:black;"/>
        </g>
    </g>
    <g id="Layer11" transform="matrix(1,0,0,1,-5.41906,8.30556)">
        <g transform="matrix(1,0,0,1,-131.736,-142.955)">
            <path d="M155.21,284.195L149.791,256.781L278.562,144.184L283.981,171.598L155.21,284.195Z" style="fill:rgb(0,211,255);stroke-width:1px;stroke:black;"/>
        </g>
        <g transform="matrix(1,0,0,1,-114.729,-133.99)">
            <path d="M285.514,181.193L259.76,203.712L265.431,231.046L290.933,208.607" style="fill:rgb(255,0,172);stroke-width:1px;stroke:black;"/>
        </g>
        <g transform="matrix(1,0,0,1,-114.729,-133.99)">
            <path d="M182.272,271.17L187.691,298.584L155.548,283.746L149.791,256L182.272,271.17Z" style="fill:rgb(130,0,255);stroke-width:1px;stroke:black;"/>
        </g>
        <g transform="matrix(1,0,0,1,-114.729,-133.99)">
            <path d="M182.272,271.17L233.78,226.131L239.199,253.545L187.691,298.584L182.272,271.17Z" style="fill:rgb(255,0,172);stroke-width:1px;stroke:black;"/>
        </g>
        <g transform="matrix(1,0,0,1,-114.729,-133.99)">
            <path d="M277.448,245.331L282.506,272.731L239.199,253.545L233.78,226.131L277.448,245.331Z" style="fill:rgb(130,0,255);stroke-width:1px;stroke:black;"/>
        </g>
        <g transform="matrix(1,0,0,1,-114.729,-133.99)">
            <path d="M285.514,181.193L291.017,208.294L366.495,242.081L361.472,214.424L285.514,181.193Z" style="fill:rgb(130,0,255);stroke-width:1px;stroke:black;"/>
        </g>
        <g transform="matrix(1,0,0,1,-114.729,-133.99)">
            <path d="M308.26,250.211L265.179,231.126L259.76,203.712L302.841,222.798L308.26,250.211Z" style="fill:rgb(51,0,255);stroke-width:1px;stroke:black;"/>
        </g>
        <g transform="matrix(1,0,0,1,-104.11,-143.512)">
            <path d="M278.926,143.912L283.981,171.598L392.07,219.718L386.651,192.304L278.926,143.912Z" style="fill:rgb(0,27,255);stroke-width:1px;stroke:black;"/>
        </g>
        <g transform="matrix(1,0,0,1,-114.729,-133.99)">
            <path d="M302.841,222.798L308.26,250.211L282.506,272.731L277.087,245.317L302.841,222.798Z" style="fill:rgb(255,0,172);stroke-width:1px;stroke:black;"/>
        </g>
        <g transform="matrix(1,0,0,1,-114.729,-133.99)">
            <path d="M386.651,192.304L392.07,219.718L366.495,242.081L361.076,214.667" style="fill:rgb(255,0,172);stroke-width:1px;stroke:black;"/>
        </g>
        <g transform="matrix(1.08268,0.479637,-0.858472,0.750643,163.832,10.194)">
            <rect x="0" y="0" width="30" height="150" style="fill:rgb(0,255,125);stroke-width:1.13px;stroke:black;"/>
        </g>
        <g transform="matrix(1.08268,0.479637,-0.858472,0.750643,163.832,10.194)">
            <rect x="30" y="0" width="70" height="30" style="fill:rgb(0,255,125);stroke-width:1.13px;stroke:black;"/>
        </g>
        <g transform="matrix(1.08268,0.479637,-0.858472,0.750643,163.832,10.194)">
            <rect x="30" y="60" width="40" height="30" style="fill:rgb(0,255,125);stroke-width:1.13px;stroke:black;"/>
        </g>
    </g>
</svg>
