<?xml version="1.0" encoding="UTF-8" standalone="no"?>
<!DOCTYPE svg PUBLIC "-//W3C//DTD SVG 1.1//EN" "http://www.w3.org/Graphics/SVG/1.1/DTD/svg11.dtd">
<svg width="100%" height="100%" viewBox="0 0 240 240" version="1.1" xmlns="http://www.w3.org/2000/svg" xmlns:xlink="http://www.w3.org/1999/xlink" xml:space="preserve" xmlns:serif="http://www.serif.com/" style="fill-rule:evenodd;clip-rule:evenodd;stroke-linecap:square;stroke-miterlimit:1.5;">
    <g transform="matrix(1,0,0,1,-104.956,-26.3856)">
        <text x="150.184px" y="101.604px" style="font-family:'ArialMT', 'Arial', sans-serif;font-size:50px;">1</text>
    </g>
    <g transform="matrix(1,0,0,1,-104.956,36.0508)">
        <text x="150.184px" y="101.604px" style="font-family:'ArialMT', 'Arial', sans-serif;font-size:50px;">0</text>
    </g>
    <g transform="matrix(1,0,0,1,-104.956,98.4873)">
        <text x="150.184px" y="101.604px" style="font-family:'ArialMT', 'Arial', sans-serif;font-size:50px;">0</text>
    </g>
    <g transform="matrix(1,0,0,1,-45.5814,-26.3856)">
        <text x="150.184px" y="101.604px" style="font-family:'ArialMT', 'Arial', sans-serif;font-size:50px;">0</text>
    </g>
    <g transform="matrix(1,0,0,1,-45.5814,36.0508)">
        <text x="150.184px" y="101.604px" style="font-family:'ArialMT', 'Arial', sans-serif;font-size:50px;">1</text>
    </g>
    <g transform="matrix(1,0,0,1,-45.5814,98.4873)">
        <text x="150.184px" y="101.604px" style="font-family:'ArialMT', 'Arial', sans-serif;font-size:50px;">0</text>
    </g>
    <g transform="matrix(1,0,0,1,13.7936,-26.3856)">
        <text x="150.184px" y="101.604px" style="font-family:'ArialMT', 'Arial', sans-serif;font-size:50px;">tx</text>
    </g>
    <g transform="matrix(1,0,0,1,13.7936,36.0508)">
        <text x="150.184px" y="101.604px" style="font-family:'ArialMT', 'Arial', sans-serif;font-size:50px;">ty</text>
    </g>
    <g transform="matrix(1,0,0,1,7.1894,98.4873)">
        <text x="155.726px" y="101.604px" style="font-family:'ArialMT', 'Arial', sans-serif;font-size:50px;">1</text>
    </g>
    <g transform="matrix(0.800333,0,0,0.78589,-75.1223,-15.997)">
        <path d="M134.172,41.448L107.943,41.448L107.943,304.649L134.172,304.649" style="fill:none;stroke:black;stroke-width:5.25px;"/>
    </g>
    <g transform="matrix(-0.800333,0,0,0.78589,315.122,-15.997)">
        <path d="M134.172,41.448L107.943,41.448L107.943,304.649L134.172,304.649" style="fill:none;stroke:black;stroke-width:5.25px;"/>
    </g>
</svg>
