<?xml version="1.0" encoding="UTF-8" standalone="no"?>
<!DOCTYPE svg PUBLIC "-//W3C//DTD SVG 1.1//EN" "http://www.w3.org/Graphics/SVG/1.1/DTD/svg11.dtd">
<svg width="100%" height="100%" viewBox="0 0 400 200" version="1.1" xmlns="http://www.w3.org/2000/svg" xmlns:xlink="http://www.w3.org/1999/xlink" xml:space="preserve" xmlns:serif="http://www.serif.com/" style="fill-rule:evenodd;clip-rule:evenodd;stroke-linecap:round;stroke-linejoin:round;stroke-miterlimit:1.5;">
    <g transform="matrix(1,0,0,1,-25.2218,7.10543e-15)">
        <circle cx="50" cy="50" r="4.778"/>
    </g>
    <g transform="matrix(1,0,0,1,14.5565,-20)">
        <circle cx="50" cy="50" r="4.778"/>
    </g>
    <g transform="matrix(1,0,0,1,45,-19.5565)">
        <circle cx="50" cy="50" r="4.778"/>
    </g>
    <g transform="matrix(1,0,0,1,74.5565,0.443529)">
        <circle cx="50" cy="50" r="4.778"/>
    </g>
    <g transform="matrix(1,0,0,1,15,30.4435)">
        <circle cx="50" cy="50" r="4.778"/>
    </g>
    <g transform="matrix(1,0,0,1,44.5565,70)">
        <circle cx="50" cy="50" r="4.778"/>
    </g>
    <g transform="matrix(1,0,0,1,84.5565,70)">
        <circle cx="50" cy="50" r="4.778"/>
    </g>
    <g transform="matrix(1,0,0,1,114.556,30.4435)">
        <circle cx="50" cy="50" r="4.778"/>
    </g>
    <g transform="matrix(1,0,0,1,145,80)">
        <circle cx="50" cy="50" r="4.778"/>
    </g>
    <g transform="matrix(1,0,0,1,174.556,50)">
        <circle cx="50" cy="50" r="4.778"/>
    </g>
    <g transform="matrix(1,0,0,1,214.778,50)">
        <circle cx="50" cy="50" r="4.778"/>
    </g>
    <g transform="matrix(1,0,0,1,254.113,80)">
        <circle cx="50" cy="50" r="4.778"/>
    </g>
    <g transform="matrix(1,0,0,1,215,80.4435)">
        <circle cx="50" cy="50" r="4.778"/>
    </g>
    <g transform="matrix(1,0,0,1,254.113,120)">
        <circle cx="50" cy="50" r="4.778"/>
    </g>
    <g transform="matrix(1,0,0,1,295,120.222)">
        <circle cx="50" cy="50" r="4.778"/>
    </g>
    <g transform="matrix(1,0,0,1,324.556,79.5565)">
        <circle cx="50" cy="50" r="4.778"/>
    </g>
    <g transform="matrix(1,0,0,1,-5.22176,0.221764)">
        <path d="M30,49.778L69.778,30L100,29.778L129.778,49.778" style="fill:none;stroke:black;stroke-width:1px;"/>
    </g>
    <g transform="matrix(1,0,0,1,-5.22176,0.221764)">
        <path d="M69.778,80L99.778,119.778L140,119.778L170,80" style="fill:none;stroke:black;stroke-width:1px;"/>
    </g>
    <g transform="matrix(1,0,0,1,-5.22176,0.221764)">
        <path d="M200,130L230,99.889L270,100L310,130" style="fill:none;stroke:black;stroke-width:1px;"/>
    </g>
    <g transform="matrix(1,0,0,1,-5.22176,0.221764)">
        <path d="M270,130L309.335,170L350,170L380,130.222" style="fill:none;stroke:black;stroke-width:1px;"/>
    </g>
</svg>
