<?xml version="1.0" encoding="UTF-8" standalone="no"?>
<!DOCTYPE svg PUBLIC "-//W3C//DTD SVG 1.1//EN" "http://www.w3.org/Graphics/SVG/1.1/DTD/svg11.dtd">
<svg width="100%" height="100%" viewBox="0 0 300 300" version="1.1" xmlns="http://www.w3.org/2000/svg" xmlns:xlink="http://www.w3.org/1999/xlink" xml:space="preserve" xmlns:serif="http://www.serif.com/" style="fill-rule:evenodd;clip-rule:evenodd;stroke-linecap:square;stroke-miterlimit:1.5;">
    <g transform="matrix(1,0,0,1,-106.723,-24.1775)">
        <text x="150.184px" y="101.604px" style="font-family:'ArialMT', 'Arial', sans-serif;font-size:50px;">1</text>
    </g>
    <g transform="matrix(1,0,0,1,-106.723,38.259)">
        <text x="150.184px" y="101.604px" style="font-family:'ArialMT', 'Arial', sans-serif;font-size:50px;">0</text>
    </g>
    <g transform="matrix(1,0,0,1,-106.723,100.696)">
        <text x="150.184px" y="101.604px" style="font-family:'ArialMT', 'Arial', sans-serif;font-size:50px;">0</text>
    </g>
    <g transform="matrix(1,0,0,1,-106.723,163.132)">
        <text x="150.184px" y="101.604px" style="font-family:'ArialMT', 'Arial', sans-serif;font-size:50px;">0</text>
    </g>
    <g transform="matrix(1,0,0,1,-47.3482,-24.1775)">
        <text x="150.184px" y="101.604px" style="font-family:'ArialMT', 'Arial', sans-serif;font-size:50px;">0</text>
    </g>
    <g transform="matrix(1,0,0,1,-47.3482,38.259)">
        <text x="150.184px" y="101.604px" style="font-family:'ArialMT', 'Arial', sans-serif;font-size:50px;">1</text>
    </g>
    <g transform="matrix(1,0,0,1,-47.3482,100.696)">
        <text x="150.184px" y="101.604px" style="font-family:'ArialMT', 'Arial', sans-serif;font-size:50px;">0</text>
    </g>
    <g transform="matrix(1,0,0,1,-47.3482,163.132)">
        <text x="150.184px" y="101.604px" style="font-family:'ArialMT', 'Arial', sans-serif;font-size:50px;">0</text>
    </g>
    <g transform="matrix(1,0,0,1,12.0268,-24.1775)">
        <text x="150.184px" y="101.604px" style="font-family:'ArialMT', 'Arial', sans-serif;font-size:50px;">0</text>
    </g>
    <g transform="matrix(1,0,0,1,12.0268,38.259)">
        <text x="150.184px" y="101.604px" style="font-family:'ArialMT', 'Arial', sans-serif;font-size:50px;">0</text>
    </g>
    <g transform="matrix(1,0,0,1,12.0268,100.696)">
        <text x="150.184px" y="101.604px" style="font-family:'ArialMT', 'Arial', sans-serif;font-size:50px;">1</text>
    </g>
    <g transform="matrix(1,0,0,1,12.0268,163.132)">
        <text x="150.184px" y="101.604px" style="font-family:'ArialMT', 'Arial', sans-serif;font-size:50px;">0</text>
    </g>
    <g transform="matrix(1,0,0,1,71.4018,-24.1775)">
        <text x="150.184px" y="101.604px" style="font-family:'ArialMT', 'Arial', sans-serif;font-size:50px;">tx</text>
    </g>
    <g transform="matrix(1,0,0,1,71.4018,38.259)">
        <text x="150.184px" y="101.604px" style="font-family:'ArialMT', 'Arial', sans-serif;font-size:50px;">ty</text>
    </g>
    <g transform="matrix(1,0,0,1,71.4018,100.696)">
        <text x="150.184px" y="101.604px" style="font-family:'ArialMT', 'Arial', sans-serif;font-size:50px;">tz</text>
    </g>
    <g transform="matrix(1,0,0,1,71.4018,163.132)">
        <text x="150.184px" y="101.604px" style="font-family:'ArialMT', 'Arial', sans-serif;font-size:50px;">1</text>
    </g>
    <g transform="matrix(1,0,0,1,-93.3197,-22.6632)">
        <path d="M134.172,41.448L107.943,41.448L107.943,304.649L134.172,304.649" style="fill:none;stroke:black;stroke-width:4.17px;"/>
    </g>
    <g transform="matrix(-1,0,0,1,394.283,-22.6632)">
        <path d="M134.172,41.448L107.943,41.448L107.943,304.649L134.172,304.649" style="fill:none;stroke:black;stroke-width:4.17px;"/>
    </g>
</svg>
