<?xml version="1.0" encoding="UTF-8" standalone="no"?>
<!DOCTYPE svg PUBLIC "-//W3C//DTD SVG 1.1//EN" "http://www.w3.org/Graphics/SVG/1.1/DTD/svg11.dtd">
<svg width="100%" height="100%" viewBox="0 0 340 400" version="1.1" xmlns="http://www.w3.org/2000/svg" xmlns:xlink="http://www.w3.org/1999/xlink" xml:space="preserve" xmlns:serif="http://www.serif.com/" style="fill-rule:evenodd;clip-rule:evenodd;stroke-linecap:round;stroke-linejoin:round;stroke-miterlimit:1.5;">
    <g transform="matrix(2.28002,0,0,1,-494.548,-149.521)">
        <path d="M231.907,222.226L324.253,222.226" style="fill:none;stroke:black;stroke-width:0.28px;stroke-dasharray:2.84,2.84,0,0;"/>
    </g>
    <g transform="matrix(1,0,0,1,-75.2454,-13.8333)">
        <path d="M108.197,357.646L320,357.646" style="fill:none;stroke:black;stroke-width:1px;"/>
    </g>
    <g transform="matrix(1,0,0,1,-75.2454,-13.8333)">
        <path d="M214.834,244.281L216.534,242.581L265.181,291.227L259.375,297.033L214.834,252.492L214.834,292.098L247.837,353.772L240.598,357.646L210.848,302.052L181.098,357.646L173.858,353.772L206.623,292.545L206.623,252.492L162.082,297.033L156.276,291.227L204.923,242.581L206.623,244.281L206.623,242.581L214.834,242.581L214.834,244.281Z" style="fill:rgb(255,143,143);"/>
    </g>
    <g transform="matrix(1,0,0,1,-75.2454,-149.222)">
        <ellipse cx="210.728" cy="221.926" rx="16.755" ry="18.074" style="fill:rgb(255,143,143);"/>
    </g>
    <g transform="matrix(0.272789,-0.272789,0.272789,0.272789,-19.5636,303.735)">
        <rect x="203.204" y="350.122" width="15.049" height="15.049" style="fill:rgb(179,255,118);stroke:black;stroke-width:2.59px;"/>
    </g>
    <g transform="matrix(0.272789,-0.272789,0.272789,0.272789,-19.5636,168.015)">
        <rect x="203.204" y="350.122" width="15.049" height="15.049" style="fill:rgb(179,255,118);stroke:black;stroke-width:2.59px;"/>
    </g>
    <g transform="matrix(0.5,0.866025,-0.866025,0.5,340.502,-153.28)">
        <path d="M210.728,362.933L214.098,373.513L207.358,373.513L210.728,362.933Z"/>
        <path d="M210.728,373.513L210.728,392.56" style="fill:none;stroke:black;stroke-width:1px;"/>
    </g>
    <g transform="matrix(0.707107,-0.707107,0.707107,0.707107,-267.877,238.749)">
        <path d="M210.728,362.933L214.098,373.513L207.358,373.513L210.728,362.933Z"/>
        <path d="M210.728,373.513L210.728,392.56" style="fill:none;stroke:black;stroke-width:1px;"/>
    </g>
    <g transform="matrix(1,-2.33487e-16,2.33487e-16,1,-0.467308,-295.519)">
        <g transform="matrix(1,0,0,1,5.68434e-14,5.29036)">
            <path d="M210.728,362.933L214.098,373.513L207.358,373.513L210.728,362.933Z"/>
        </g>
        <g transform="matrix(1,-9.86076e-32,0,13.956,1.21569e-14,-4839.24)">
            <path d="M210.728,373.513L210.728,392.56" style="fill:none;stroke:black;stroke-width:0.05px;stroke-dasharray:0.51,0.51,0,0;"/>
        </g>
    </g>
    <g transform="matrix(1,0,0,1,-81.1959,-13.8333)">
        <text x="244.762px" y="384.189px" style="font-family:'ArialMT', 'Arial', sans-serif;font-size:12px;">origin</text>
    </g>
    <g transform="matrix(1,0,0,1,-77.8734,-91.1658)">
        <text x="298.726px" y="234.72px" style="font-family:'ArialMT', 'Arial', sans-serif;font-size:12px;">result of multiplying</text>
        <text x="298.726px" y="247.112px" style="font-family:'ArialMT', 'Arial', sans-serif;font-size:12px;">the head vertices</text>
        <text x="298.726px" y="259.505px" style="font-family:'ArialMT', 'Arial', sans-serif;font-size:12px;">2.0 units above the</text>
        <text x="298.726px" y="271.898px" style="font-family:'ArialMT', 'Arial', sans-serif;font-size:12px;">origin by a matrix</text>
        <text x="298.726px" y="284.29px" style="font-family:'ArialMT', 'Arial', sans-serif;font-size:12px;">with a <tspan x="333.191px 340.978px 344.312px " y="284.29px 284.29px 284.29px ">Y t</tspan>ranslation</text>
        <text x="298.726px" y="296.683px" style="font-family:'ArialMT', 'Arial', sans-serif;font-size:12px;">of 2.0</text>
    </g>
    <g transform="matrix(1,0,0,1,-77.1282,-9.64814)">
        <text x="121.482px" y="239.369px" style="font-family:'ArialMT', 'Arial', sans-serif;font-size:12px;">head bone</text>
    </g>
    <g transform="matrix(1,0,0,1,-2.2119,4.80278)">
        <text x="257.928px" y="72.141px" style="font-family:'ArialMT', 'Arial', sans-serif;font-size:12px;">4.0</text>
    </g>
</svg>
