<?xml version="1.0" encoding="UTF-8" standalone="no"?>
<!DOCTYPE svg PUBLIC "-//W3C//DTD SVG 1.1//EN" "http://www.w3.org/Graphics/SVG/1.1/DTD/svg11.dtd">
<svg width="100%" height="100%" viewBox="0 0 512 512" version="1.1" xmlns="http://www.w3.org/2000/svg" xmlns:xlink="http://www.w3.org/1999/xlink" xml:space="preserve" style="fill-rule:evenodd;clip-rule:evenodd;stroke-linecap:round;stroke-linejoin:round;stroke-miterlimit:1.5;">
    <g transform="matrix(1,0,0,1,20,-2.83501)">
        <path d="M236,124L197,112L197,34C197,34 184.859,31.871 165,33C186.997,66.892 161.894,89.627 173,109C184.106,128.373 186.493,137.68 205,144C219.37,148.907 222,154 222,154L220,175L202,174L191,194L204,209L222,208C222,208 226.476,278.566 218,295C209.524,311.434 191.013,324.945 201,354C210.987,383.055 213,399 213,399L191,403L191,417L212,422C212,422 233.283,437.511 211,444C188.717,450.489 111,472 111,472L111,485L236,484L236,124Z" style="stroke:black;stroke-width:1px;"/>
    </g>
    <g transform="matrix(-1,0,0,1,492,-2.83501)">
        <path d="M236,124L197,112L197,34C197,34 184.859,31.871 165,33C186.997,66.892 161.894,89.627 173,109C184.106,128.373 186.493,137.68 205,144C219.37,148.907 222,154 222,154L220,175L202,174L191,194L204,209L222,208C222,208 226.476,278.566 218,295C209.524,311.434 191.013,324.945 201,354C210.987,383.055 213,399 213,399L191,403L191,417L212,422C212,422 233.283,437.511 211,444C188.717,450.489 111,472 111,472L111,485L236,484L236,124Z" style="stroke:black;stroke-width:1px;"/>
    </g>
</svg>
