<?xml version="1.0" encoding="UTF-8" standalone="no"?>
<!DOCTYPE svg PUBLIC "-//W3C//DTD SVG 1.1//EN" "http://www.w3.org/Graphics/SVG/1.1/DTD/svg11.dtd">
<svg width="100%" height="100%" viewBox="0 0 600 500" version="1.1" xmlns="http://www.w3.org/2000/svg" xmlns:xlink="http://www.w3.org/1999/xlink" xml:space="preserve" xmlns:serif="http://www.serif.com/" style="fill-rule:evenodd;clip-rule:evenodd;stroke-linecap:round;stroke-linejoin:round;stroke-miterlimit:1.5;">
    <g>
        <g transform="matrix(0.649037,0.760757,-0.760757,0.649037,351.874,-243.642)">
            <path d="M340,25.564L360,60L320,60L340,25.564Z" style="fill:rgb(169,113,190);"/>
        </g>
        <g transform="matrix(0.645554,0,0,0.645554,426.711,-15.5299)">
            <path d="M175,112C175,114.76 172.76,117 170,117C168.257,117 166.721,116.106 165.826,114.752L175,112ZM175,111L165.37,113.889C165.131,113.306 165,112.668 165,112C165,112 175,109 175,109L175,111ZM165,111L175,108L175,106L165,109L165,111ZM165,104.82C162.012,103.09 160,99.858 160,96.16L160,96C160,90.481 164.481,86 170,86C175.519,86 180,90.481 180,96L180,96.16C180,99.858 177.988,103.09 175,104.82L175,105L174.177,105.247C173.345,105.63 172.451,105.903 171.515,106.045L165,108L165,104.82Z" style="fill:rgb(255,255,49);"/>
        </g>
        <g transform="matrix(1,0,0,1,200,20)">
            <circle cx="200" cy="100" r="40" style="fill:rgb(255,165,165);"/>
        </g>
        <g transform="matrix(1.19444,0,0,1.19444,86.1111,-40.8333)">
            <rect x="20" y="200" width="360" height="10" style="fill:rgb(140,154,255);"/>
        </g>
        <g transform="matrix(0.805793,0.936332,-2.03888,1.75463,431.381,-191.636)">
            <path d="M220,40L180,40L21.909,177.549L361.901,177.549L220,40Z" style="fill:none;stroke:black;stroke-width:0.48px;"/>
        </g>
        <g transform="matrix(0.24751,-0.0487435,0.0682574,0.346597,351.602,42.615)">
            <g transform="matrix(3.8894,0.546985,-0.765963,2.77747,-1334.88,-310.683)">
                <path d="M480.458,41.305L486.557,44.841L483.799,38.352L480.458,41.305Z" style="fill:rgb(130,127,127);"/>
                <path d="M483.014,40.831C479.13,36.436 473.443,30 473.443,30" style="fill:none;stroke:rgb(130,127,127);stroke-width:1px;"/>
            </g>
        </g>
        <g transform="matrix(0.24751,-0.0487435,0.0682574,0.346597,-51.8407,135.19)">
            <g transform="matrix(3.8894,0.546985,-0.765963,2.77747,305.18,-347.131)">
                <path d="M77.015,133.88L83.115,137.416L80.356,130.927L77.015,133.88Z" style="fill:rgb(130,127,127);"/>
                <path d="M79.571,133.406C75.687,129.011 70,122.575 70,122.575" style="fill:none;stroke:rgb(130,127,127);stroke-width:1px;"/>
            </g>
        </g>
        <g transform="matrix(1,0,0,1,3.127,10.336)">
            <text x="51.059px" y="109.664px" style="font-family:'ArialMT', 'Arial', sans-serif;font-size:16.667px;fill:rgb(128,128,128);">1.0</text>
        </g>
        <g transform="matrix(1,0,0,1,407.126,-83.7762)">
            <text x="51.059px" y="109.664px" style="font-family:'ArialMT', 'Arial', sans-serif;font-size:16.667px;fill:rgb(128,128,128);">0.0</text>
        </g>
    </g>
    <g id="under-arrows" transform="matrix(1,0,0,1,0,-700)">
        <g transform="matrix(0.652319,0.757944,-0.757944,0.652319,366.581,467.576)">
            <path d="M110,453L295.937,87.582" style="fill:none;stroke:rgb(128,128,128);stroke-opacity:0.35;stroke-width:0.21px;"/>
        </g>
        <g transform="matrix(0.652319,0.757944,-0.757944,0.652319,379.628,482.735)">
            <path d="M110,453L278.199,87.414" style="fill:none;stroke:rgb(128,128,128);stroke-opacity:0.35;stroke-width:0.21px;"/>
        </g>
        <g transform="matrix(0.652319,0.757944,-0.757944,0.652319,392.674,497.894)">
            <path d="M110,453L260.646,87.406" style="fill:none;stroke:rgb(128,128,128);stroke-opacity:0.35;stroke-width:0.21px;"/>
        </g>
        <g transform="matrix(0.652319,0.757944,-0.757944,0.652319,405.72,513.053)">
            <path d="M110,453L243.093,87.398" style="fill:none;stroke:rgb(128,128,128);stroke-opacity:0.35;stroke-width:0.21px;"/>
        </g>
        <g transform="matrix(0.652319,0.757944,-0.757944,0.652319,418.767,528.212)">
            <path d="M110,453L225.54,87.39" style="fill:none;stroke:rgb(128,128,128);stroke-opacity:0.35;stroke-width:0.21px;"/>
        </g>
        <g transform="matrix(0.652319,0.757944,-0.757944,0.652319,431.813,543.371)">
            <path d="M110,453L207.811,87.552" style="fill:none;stroke:rgb(128,128,128);stroke-opacity:0.35;stroke-width:0.21px;"/>
        </g>
        <g transform="matrix(0.652319,0.757944,-0.757944,0.652319,444.86,558.53)">
            <path d="M110,453L190.249,87.214" style="fill:none;stroke:rgb(128,128,128);stroke-opacity:0.35;stroke-width:0.21px;"/>
        </g>
        <g transform="matrix(0.652319,0.757944,-0.757944,0.652319,457.906,573.689)">
            <path d="M110,453L173.067,87.525" style="fill:none;stroke:rgb(128,128,128);stroke-opacity:0.35;stroke-width:0.21px;"/>
        </g>
        <g transform="matrix(0.652319,0.757944,-0.757944,0.652319,470.952,588.847)">
            <path d="M110,453L155.328,87.357" style="fill:none;stroke:rgb(128,128,128);stroke-opacity:0.35;stroke-width:0.21px;"/>
        </g>
        <g transform="matrix(0.652319,0.757944,-0.757944,0.652319,483.999,604.006)">
            <path d="M110,453L137.961,87.508" style="fill:none;stroke:rgb(128,128,128);stroke-opacity:0.35;stroke-width:0.21px;"/>
        </g>
        <g transform="matrix(0.652319,0.757944,-0.757944,0.652319,497.045,619.165)">
            <path d="M110,453L120.223,87.341" style="fill:none;stroke:rgb(128,128,128);stroke-opacity:0.35;stroke-width:0.21px;"/>
        </g>
        <g transform="matrix(0.652319,0.757944,-0.757944,0.652319,510.092,634.324)">
            <path d="M110,453L102.638,87.277" style="fill:none;stroke:rgb(128,128,128);stroke-opacity:0.35;stroke-width:0.21px;"/>
        </g>
        <g transform="matrix(0.652319,0.757944,-0.757944,0.652319,523.138,649.483)">
            <path d="M110,453L85.117,87.324" style="fill:none;stroke:rgb(128,128,128);stroke-opacity:0.35;stroke-width:0.21px;"/>
        </g>
        <g transform="matrix(0.652319,0.757944,-0.757944,0.652319,536.184,664.642)">
            <path d="M110,453L67.704,87.15" style="fill:none;stroke:rgb(128,128,128);stroke-opacity:0.35;stroke-width:0.21px;"/>
        </g>
        <g transform="matrix(0.652319,0.757944,-0.757944,0.652319,549.231,679.801)">
            <path d="M110,453L49.875,87.366" style="fill:none;stroke:rgb(128,128,128);stroke-opacity:0.35;stroke-width:0.21px;"/>
        </g>
        <g transform="matrix(0.652319,0.757944,-0.757944,0.652319,562.277,694.96)">
            <path d="M110,453L32.334,87.32" style="fill:none;stroke:rgb(128,128,128);stroke-opacity:0.35;stroke-width:0.21px;"/>
        </g>
        <g transform="matrix(0.652319,0.757944,-0.757944,0.652319,575.323,710.119)">
            <path d="M110,453L14.905,87.292" style="fill:none;stroke:rgb(128,128,128);stroke-opacity:0.35;stroke-width:0.21px;"/>
        </g>
        <g transform="matrix(0.652319,0.757944,-0.757944,0.652319,588.37,725.277)">
            <path d="M110,453L-2.655,87.348" style="fill:none;stroke:rgb(128,128,128);stroke-opacity:0.35;stroke-width:0.21px;"/>
        </g>
        <g transform="matrix(0.652319,0.757944,-0.757944,0.652319,601.416,740.436)">
            <path d="M110,453L-20.126,87.274" style="fill:none;stroke:rgb(128,128,128);stroke-opacity:0.35;stroke-width:0.21px;"/>
        </g>
        <g transform="matrix(0.652319,0.757944,-0.757944,0.652319,614.463,755.595)">
            <path d="M110,453L-37.568,87.427" style="fill:none;stroke:rgb(128,128,128);stroke-opacity:0.35;stroke-width:0.21px;"/>
        </g>
        <g transform="matrix(0.652319,0.757944,-0.757944,0.652319,627.509,770.754)">
            <path d="M110,453L-55.49,87.261" style="fill:none;stroke:rgb(128,128,128);stroke-opacity:0.35;stroke-width:0.21px;"/>
        </g>
    </g>
    <g id="depth-arrows" serif:id="depth arrows" transform="matrix(1,0,0,1,0,-700)">
        <g transform="matrix(0.652319,0.757944,-0.757944,0.652319,366.581,467.576)">
            <g transform="matrix(0.652319,-0.757944,0.757944,0.652319,-62.9639,429.463)">
                <path d="M96.085,144.642C95.283,144.839 94.791,145.649 94.988,146.451C95.184,147.253 95.994,147.745 96.796,147.548C97.598,147.352 98.09,146.542 97.894,145.74C97.698,144.938 96.887,144.446 96.085,144.642Z" style="fill:rgb(129,129,129);"/>
                <path d="M97.313,145.882C129.861,137.919 493.245,49.012 493.245,49.012" style="fill:none;stroke:rgb(129,129,129);stroke-width:0.42px;"/>
            </g>
        </g>
        <g transform="matrix(0.652319,0.757944,-0.757944,0.652319,379.628,482.735)">
            <g transform="matrix(0.652319,-0.757944,0.757944,0.652319,-82.9639,429.463)">
                <path d="M109.059,159.759C108.266,159.987 107.806,160.816 108.034,161.61C108.262,162.403 109.091,162.863 109.885,162.635C110.678,162.407 111.137,161.578 110.91,160.785C110.682,159.991 109.853,159.532 109.059,159.759Z" style="fill:rgb(129,129,129);"/>
                <path d="M110.335,160.95C142.22,151.8 494.847,50.617 494.847,50.617" style="fill:none;stroke:rgb(129,129,129);stroke-width:0.42px;"/>
            </g>
        </g>
        <g transform="matrix(0.150734,0.175141,-0.175141,0.150734,472.47,693.641)">
            <g transform="matrix(2.82299,-3.28009,3.28009,2.82299,-1312.92,1567.7)">
                <path d="M410.661,79.299C409.878,79.558 409.452,80.405 409.712,81.189C409.971,81.973 410.818,82.398 411.602,82.139C412.386,81.879 412.811,81.032 412.552,80.249C412.292,79.465 411.445,79.039 410.661,79.299Z" style="fill:rgb(129,129,129);"/>
                <path d="M411.984,80.437C425.661,75.908 496.45,52.466 496.45,52.466" style="fill:none;stroke:rgb(129,129,129);stroke-width:0.42px;"/>
            </g>
        </g>
        <g transform="matrix(0.142864,0.165997,-0.165997,0.142864,477.831,701.477)">
            <g transform="matrix(2.97851,-3.46079,3.46079,2.97851,-1428.33,1649.27)">
                <path d="M419.219,82.525C418.447,82.817 418.057,83.682 418.349,84.454C418.641,85.226 419.505,85.616 420.277,85.324C421.05,85.032 421.44,84.168 421.148,83.396C420.856,82.623 419.992,82.233 419.219,82.525Z" style="fill:rgb(129,129,129);"/>
                <path d="M420.588,83.607C433.516,78.719 498.052,54.315 498.052,54.315" style="fill:none;stroke:rgb(129,129,129);stroke-width:0.42px;"/>
            </g>
        </g>
        <g transform="matrix(0.139153,0.161685,-0.161685,0.139153,482.4,707.538)">
            <g transform="matrix(3.05793,-3.55308,3.55308,3.05793,-1501.93,1690.95)">
                <path d="M425.249,86.396C424.49,86.721 424.138,87.601 424.463,88.36C424.788,89.118 425.668,89.471 426.427,89.146C427.186,88.821 427.538,87.941 427.213,87.182C426.888,86.423 426.008,86.071 425.249,86.396Z" style="fill:rgb(129,129,129);"/>
                <path d="M426.663,87.417C439.062,82.109 499.655,56.165 499.655,56.165" style="fill:none;stroke:rgb(129,129,129);stroke-width:0.42px;"/>
            </g>
        </g>
        <g transform="matrix(0.137545,0.159817,-0.159817,0.137545,486.422,712.738)">
            <g transform="matrix(3.09368,-3.59461,3.59461,3.09368,-1550.62,1709.09)">
                <path d="M429.853,90.629C429.109,90.987 428.797,91.882 429.155,92.626C429.514,93.369 430.408,93.682 431.152,93.324C431.896,92.965 432.209,92.07 431.85,91.327C431.492,90.583 430.597,90.27 429.853,90.629Z" style="fill:rgb(129,129,129);"/>
                <path d="M431.311,91.586C443.28,85.818 501.013,57.992 501.013,57.992" style="fill:none;stroke:rgb(129,129,129);stroke-width:0.42px;"/>
            </g>
        </g>
        <g transform="matrix(0.138361,0.160765,-0.160765,0.138361,490.557,716.967)">
            <g transform="matrix(3.07543,-3.57341,3.57341,3.07543,-1569.3,1700.78)">
                <path d="M433.557,95.302C432.83,95.694 432.559,96.602 432.951,97.328C433.343,98.055 434.251,98.327 434.977,97.935C435.704,97.543 435.976,96.635 435.584,95.908C435.192,95.181 434.284,94.91 433.557,95.302Z" style="fill:rgb(129,129,129);"/>
                <path d="M435.057,96.192C446.721,89.901 502.859,59.619 502.859,59.619" style="fill:none;stroke:rgb(129,129,129);stroke-width:0.42px;"/>
            </g>
        </g>
        <g transform="matrix(0.140051,0.162729,-0.162729,0.140051,494.467,721.537)">
            <g transform="matrix(3.03832,-3.53029,3.53029,3.03832,-1578.38,1680.18)">
                <path d="M436.671,100.828C435.962,101.253 435.732,102.172 436.156,102.88C436.58,103.588 437.5,103.819 438.208,103.395C438.916,102.97 439.147,102.051 438.723,101.343C438.298,100.634 437.379,100.404 436.671,100.828Z" style="fill:rgb(129,129,129);"/>
                <path d="M438.209,101.65C449.594,94.829 504.462,61.958 504.462,61.958" style="fill:none;stroke:rgb(129,129,129);stroke-width:0.42px;"/>
            </g>
        </g>
        <g transform="matrix(0.144001,0.167318,-0.167318,0.144001,498.313,724.994)">
            <g transform="matrix(2.95499,-3.43346,3.43346,2.95499,-1558.32,1637.08)">
                <path d="M438.775,106.557C438.088,107.014 437.901,107.944 438.359,108.631C438.816,109.318 439.745,109.505 440.433,109.047C441.12,108.59 441.306,107.661 440.849,106.973C440.391,106.286 439.462,106.1 438.775,106.557Z" style="fill:rgb(129,129,129);"/>
                <path d="M440.351,107.305C451.54,99.857 506.064,63.562 506.064,63.562" style="fill:none;stroke:rgb(129,129,129);stroke-width:0.42px;"/>
            </g>
        </g>
        <g transform="matrix(0.150022,0.174314,-0.174314,0.150022,502.224,728.48)">
            <g transform="matrix(2.83639,-3.29566,3.29566,2.83639,-1518.36,1574.38)">
                <path d="M440.08,113.523C439.415,114.012 439.273,114.949 439.762,115.614C440.251,116.279 441.188,116.422 441.853,115.933C442.518,115.444 442.661,114.506 442.172,113.841C441.682,113.176 440.745,113.034 440.08,113.523Z" style="fill:rgb(129,129,129);"/>
                <path d="M441.69,114.196C452.752,106.058 507.667,65.657 507.667,65.657" style="fill:none;stroke:rgb(129,129,129);stroke-width:0.42px;"/>
            </g>
        </g>
        <g transform="matrix(0.159601,0.185444,-0.185444,0.159601,506.279,731.027)">
            <g transform="matrix(2.66615,-3.09786,3.09786,2.66615,-1445.93,1485.66)">
                <path d="M440.045,121.621C439.405,122.142 439.308,123.085 439.828,123.725C440.349,124.366 441.292,124.463 441.933,123.942C442.573,123.421 442.671,122.478 442.15,121.838C441.629,121.197 440.686,121.1 440.045,121.621Z" style="fill:rgb(129,129,129);"/>
                <path d="M441.685,122.215C452.728,113.237 509.269,67.261 509.269,67.261" style="fill:none;stroke:rgb(129,129,129);stroke-width:0.42px;"/>
            </g>
        </g>
        <g transform="matrix(0.179744,0.208848,-0.208848,0.179744,510.672,731.927)">
            <g transform="matrix(2.36737,-2.7507,2.7507,2.36737,-1296.77,1329.12)">
                <path d="M435.951,134.212C435.337,134.763 435.285,135.71 435.836,136.325C436.387,136.94 437.333,136.991 437.948,136.44C438.563,135.889 438.615,134.943 438.064,134.328C437.513,133.713 436.566,133.661 435.951,134.212Z" style="fill:rgb(129,129,129);"/>
                <path d="M437.618,134.727C448.987,124.538 510.893,69.051 510.893,69.051" style="fill:none;stroke:rgb(129,129,129);stroke-width:0.42px;"/>
            </g>
        </g>
        <g transform="matrix(0.322097,0.374251,-0.374251,0.322097,517.74,710.978)">
            <g transform="matrix(1.3211,-1.53501,1.53501,1.3211,-700.836,780.233)">
                <path d="M383.649,195.94C383.061,196.52 383.055,197.468 383.635,198.056C384.214,198.643 385.162,198.65 385.75,198.07C386.338,197.49 386.344,196.542 385.764,195.955C385.185,195.367 384.237,195.36 383.649,195.94Z" style="fill:rgb(129,129,129);"/>
                <path d="M385.338,196.375C400.549,181.37 512.474,70.96 512.474,70.96" style="fill:none;stroke:rgb(129,129,129);stroke-width:0.42px;"/>
            </g>
        </g>
        <g transform="matrix(0.301807,0.350676,-0.350676,0.301807,524.422,722.763)">
            <g transform="matrix(1.40991,-1.63821,1.63821,1.40991,-776.679,827.018)">
                <path d="M398.679,195.942C398.119,196.549 398.158,197.496 398.764,198.056C399.371,198.615 400.318,198.577 400.878,197.97C401.438,197.363 401.4,196.416 400.793,195.856C400.186,195.297 399.239,195.335 398.679,195.942Z" style="fill:rgb(129,129,129);"/>
                <path d="M400.387,196.296C414.39,181.115 514.294,72.808 514.294,72.808" style="fill:none;stroke:rgb(129,129,129);stroke-width:0.42px;"/>
            </g>
        </g>
        <g transform="matrix(0.283498,0.329402,-0.329402,0.283498,530.186,733.397)">
            <g transform="matrix(1.50097,-1.74401,1.74401,1.50097,-854.036,874.52)">
                <path d="M411.965,195.948C411.435,196.581 411.518,197.525 412.151,198.056C412.784,198.586 413.728,198.502 414.259,197.869C414.789,197.236 414.705,196.292 414.072,195.762C413.439,195.232 412.495,195.315 411.965,195.948Z" style="fill:rgb(129,129,129);"/>
                <path d="M413.688,196.221C426.531,180.885 515.547,74.594 515.547,74.594" style="fill:none;stroke:rgb(129,129,129);stroke-width:0.42px;"/>
            </g>
        </g>
        <g transform="matrix(0.266774,0.309971,-0.309971,0.266774,535.626,743.11)">
            <g transform="matrix(1.59506,-1.85333,1.85333,1.59506,-934.253,923.932)">
                <path d="M424.271,195.959C423.771,196.616 423.898,197.555 424.555,198.056C425.212,198.556 426.151,198.429 426.651,197.772C427.151,197.115 427.024,196.176 426.368,195.675C425.711,195.175 424.771,195.302 424.271,195.959Z" style="fill:rgb(129,129,129);"/>
                <path d="M426.005,196.151C437.773,180.7 517.186,76.427 517.186,76.427" style="fill:none;stroke:rgb(129,129,129);stroke-width:0.42px;"/>
            </g>
        </g>
        <g transform="matrix(0.25136,0.29206,-0.29206,0.25136,540.632,752.063)">
            <g transform="matrix(1.69287,-1.96699,1.96699,1.69287,-1017.63,975.281)">
                <path d="M435.6,195.974C435.13,196.653 435.3,197.585 435.978,198.056C436.657,198.526 437.59,198.356 438.06,197.678C438.53,196.999 438.36,196.066 437.682,195.596C437.003,195.126 436.07,195.295 435.6,195.974Z" style="fill:rgb(129,129,129);"/>
                <path d="M437.341,196.088C448.097,180.559 518.884,78.358 518.884,78.358" style="fill:none;stroke:rgb(129,129,129);stroke-width:0.42px;"/>
            </g>
        </g>
        <g transform="matrix(0.237261,0.275679,-0.275679,0.237261,545.143,760.252)">
            <g transform="matrix(1.79347,-2.08387,2.08387,1.79347,-1103.25,1027.95)">
                <path d="M445.889,195.993C445.45,196.692 445.66,197.616 446.359,198.056C447.058,198.495 447.982,198.284 448.422,197.585C448.861,196.886 448.651,195.962 447.952,195.523C447.253,195.083 446.329,195.294 445.889,195.993Z" style="fill:rgb(129,129,129);"/>
                <path d="M447.633,196.029C457.431,180.446 520.433,80.244 520.433,80.244" style="fill:none;stroke:rgb(129,129,129);stroke-width:0.42px;"/>
            </g>
        </g>
        <g transform="matrix(0.224296,0.260614,-0.260614,0.224296,549.398,767.782)">
            <g transform="matrix(1.89714,-2.20433,2.20433,1.89714,-1191.7,1082.46)">
                <path d="M455.454,196.015C455.045,196.732 455.295,197.647 456.012,198.056C456.729,198.465 457.644,198.214 458.053,197.497C458.462,196.78 458.212,195.866 457.494,195.457C456.777,195.048 455.863,195.298 455.454,196.015Z" style="fill:rgb(129,129,129);"/>
                <path d="M457.198,195.977C466.102,180.365 522.139,82.112 522.139,82.112" style="fill:none;stroke:rgb(129,129,129);stroke-width:0.42px;"/>
            </g>
        </g>
        <g transform="matrix(0.212099,0.246443,-0.246443,0.212099,553.205,774.866)">
            <g transform="matrix(2.00623,-2.33109,2.33109,2.00623,-1284.38,1139.37)">
                <path d="M464.255,196.04C463.876,196.774 464.164,197.677 464.898,198.056C465.631,198.434 466.534,198.146 466.913,197.412C467.292,196.679 467.004,195.776 466.27,195.397C465.536,195.018 464.633,195.307 464.255,196.04Z" style="fill:rgb(129,129,129);"/>
                <path d="M465.996,195.929C474.049,180.326 523.692,84.151 523.692,84.151" style="fill:none;stroke:rgb(129,129,129);stroke-width:0.42px;"/>
            </g>
        </g>
        <g transform="matrix(0.201492,0.234118,-0.234118,0.201492,556.783,781.027)">
            <g transform="matrix(2.11185,-2.45381,2.45381,2.11185,-1374.67,1195.12)">
                <path d="M472.166,196.068C471.818,196.817 472.143,197.707 472.892,198.056C473.64,198.404 474.531,198.078 474.879,197.33C475.227,196.581 474.902,195.691 474.153,195.343C473.405,194.995 472.514,195.32 472.166,196.068Z" style="fill:rgb(129,129,129);"/>
                <path d="M473.901,195.885C481.164,180.266 525.173,85.618 525.173,85.618" style="fill:none;stroke:rgb(129,129,129);stroke-width:0.42px;"/>
            </g>
        </g>
    </g>
    <g id="depth-texture" transform="matrix(1,0,0,1,2.39531,-702.128)">
        <g transform="matrix(0.698111,0.811151,-0.757944,0.652319,374.133,476.351)">
            <rect x="101.312" y="460" width="18.688" height="20" style="fill:white;stroke:black;stroke-width:0.4px;"/>
        </g>
        <g transform="matrix(0.698111,0.811151,-0.757944,0.652319,387.179,491.509)">
            <rect x="101.312" y="460" width="18.688" height="20" style="fill:rgb(127,127,127);stroke:black;stroke-width:0.4px;"/>
        </g>
        <g transform="matrix(0.698111,0.811151,-0.757944,0.652319,400.225,506.668)">
            <rect x="101.312" y="460" width="18.688" height="20" style="fill:rgb(116,116,116);stroke:black;stroke-width:0.4px;"/>
        </g>
        <g transform="matrix(0.698111,0.811151,-0.757944,0.652319,413.272,521.827)">
            <rect x="101.312" y="460" width="18.688" height="20" style="fill:rgb(102,102,102);stroke:black;stroke-width:0.4px;"/>
        </g>
        <g transform="matrix(0.698111,0.811151,-0.757944,0.652319,426.318,536.986)">
            <rect x="101.312" y="460" width="18.688" height="20" style="fill:rgb(88,88,88);stroke:black;stroke-width:0.4px;"/>
        </g>
        <g transform="matrix(0.698111,0.811151,-0.757944,0.652319,439.365,552.145)">
            <rect x="101.312" y="460" width="18.688" height="20" style="fill:rgb(78,78,78);stroke:black;stroke-width:0.4px;"/>
        </g>
        <g transform="matrix(0.698111,0.811151,-0.757944,0.652319,452.411,567.304)">
            <rect x="101.312" y="460" width="18.688" height="20" style="fill:rgb(89,89,89);stroke:black;stroke-width:0.4px;"/>
        </g>
        <g transform="matrix(0.698111,0.811151,-0.757944,0.652319,465.457,582.463)">
            <rect x="101.312" y="460" width="18.688" height="20" style="fill:rgb(102,102,102);stroke:black;stroke-width:0.4px;"/>
        </g>
        <g transform="matrix(0.698111,0.811151,-0.757944,0.652319,478.504,597.622)">
            <rect x="101.312" y="460" width="18.688" height="20" style="fill:rgb(116,116,116);stroke:black;stroke-width:0.4px;"/>
        </g>
        <g transform="matrix(0.698111,0.811151,-0.757944,0.652319,491.55,612.78)">
            <rect x="101.312" y="460" width="18.688" height="20" style="fill:rgb(127,127,127);stroke:black;stroke-width:0.4px;"/>
        </g>
        <g transform="matrix(0.698111,0.811151,-0.757944,0.652319,504.597,627.939)">
            <rect x="101.312" y="460" width="18.688" height="20" style="fill:rgb(140,140,140);stroke:black;stroke-width:0.4px;"/>
        </g>
        <g transform="matrix(0.698111,0.811151,-0.757944,0.652319,517.643,643.098)">
            <rect x="101.312" y="460" width="18.688" height="20" style="fill:rgb(204,204,204);stroke:black;stroke-width:0.4px;"/>
        </g>
        <g transform="matrix(0.698111,0.811151,-0.757944,0.652319,530.689,658.257)">
            <rect x="101.312" y="460" width="18.688" height="20" style="fill:rgb(196,196,196);stroke:black;stroke-width:0.4px;"/>
        </g>
        <g transform="matrix(0.698111,0.811151,-0.757944,0.652319,543.736,673.416)">
            <rect x="101.312" y="460" width="18.688" height="20" style="fill:rgb(189,189,189);stroke:black;stroke-width:0.4px;"/>
        </g>
        <g transform="matrix(0.698111,0.811151,-0.757944,0.652319,556.782,688.575)">
            <rect x="101.312" y="460" width="18.688" height="20" style="fill:rgb(181,181,181);stroke:black;stroke-width:0.4px;"/>
        </g>
        <g transform="matrix(0.698111,0.811151,-0.757944,0.652319,569.828,703.734)">
            <rect x="101.312" y="460" width="18.688" height="20" style="fill:rgb(174,174,174);stroke:black;stroke-width:0.4px;"/>
        </g>
        <g transform="matrix(0.698111,0.811151,-0.757944,0.652319,582.875,718.893)">
            <rect x="101.312" y="460" width="18.688" height="20" style="fill:rgb(168,168,168);stroke:black;stroke-width:0.4px;"/>
        </g>
        <g transform="matrix(0.698111,0.811151,-0.757944,0.652319,595.921,734.052)">
            <rect x="101.312" y="460" width="18.688" height="20" style="fill:rgb(159,159,159);stroke:black;stroke-width:0.4px;"/>
        </g>
        <g transform="matrix(0.698111,0.811151,-0.757944,0.652319,608.968,749.21)">
            <rect x="101.312" y="460" width="18.688" height="20" style="fill:rgb(150,150,150);stroke:black;stroke-width:0.4px;"/>
        </g>
        <g transform="matrix(0.698111,0.811151,-0.757944,0.652319,622.014,764.369)">
            <rect x="101.312" y="460" width="18.688" height="20" style="fill:rgb(143,143,143);stroke:black;stroke-width:0.4px;"/>
        </g>
        <g transform="matrix(0.698111,0.811151,-0.757944,0.652319,361.086,461.192)">
            <rect x="101.312" y="460" width="18.688" height="20" style="fill:white;stroke:black;stroke-width:0.4px;"/>
        </g>
    </g>
    <g transform="matrix(0.654696,0.755893,-0.755893,0.654696,298.719,42.3189)">
        <text x="54.742px" y="269.58px" style="font-family:'ArialMT', 'Arial', sans-serif;font-size:16.667px;fill:rgb(127,127,127);">rendered depth texture</text>
    </g>
</svg>
