<?xml version="1.0" encoding="UTF-8" standalone="no"?>
<!DOCTYPE svg PUBLIC "-//W3C//DTD SVG 1.1//EN" "http://www.w3.org/Graphics/SVG/1.1/DTD/svg11.dtd">
<svg width="100%" height="100%" viewBox="0 0 480 320" version="1.1" xmlns="http://www.w3.org/2000/svg" xmlns:xlink="http://www.w3.org/1999/xlink" xml:space="preserve" xmlns:serif="http://www.serif.com/" style="fill-rule:evenodd;clip-rule:evenodd;stroke-linecap:round;stroke-linejoin:round;stroke-miterlimit:1.5;">
    <g transform="matrix(-2.75169,3.36984e-16,-3.36984e-16,-2.75169,172.157,686.075)">
        <path d="M33,186L36,186L36,189L33,189L33,193L30,193L30,180L38,180L38,183L33,183L33,186Z" style="fill:rgb(166,51,255);"/>
    </g>
    <g transform="matrix(0.758526,0,0,0.790947,69.2197,24.4851)">
        <path d="M34.124,207.923L441.359,109.568L441.359,310.406L34.124,212.05L34.124,207.923Z" style="fill:rgb(38,185,217);"/>
    </g>
    <g transform="matrix(0.362389,0,0,0.362389,62.4431,132.608)">
        <g transform="matrix(0.648649,0,0,1,29.3833,93)">
            <rect x="21" y="57" width="37" height="21"/>
        </g>
        <g transform="matrix(6.12323e-17,-1,1,6.12323e-17,-1.24628,265)">
            <path d="M104.5,57L114,78L95,78L104.5,57Z"/>
        </g>
    </g>
    <g transform="matrix(1,0,0,1,-25.9976,-10)">
        <g transform="matrix(6.12323e-17,1,-1,6.12323e-17,281.102,163.749)">
            <g transform="matrix(6.12323e-17,-1,1,6.12323e-17,-201.749,237.502)">
                <path d="M77.502,248L83,263L72.005,263L77.502,248Z"/>
            </g>
            <g transform="matrix(0.327586,0,-3.08149e-33,1,21.0616,-183)">
                <path d="M83,343L199,343" style="fill:none;stroke:black;stroke-width:1.34px;stroke-dasharray:6.72,6.72,0,0;"/>
            </g>
        </g>
        <g transform="matrix(6.12323e-17,1,-1,6.12323e-17,589,-258.251)">
            <g transform="matrix(6.12323e-17,1,-1,6.12323e-17,625.251,81.4975)">
                <path d="M77.502,248L83,263L72.005,263L77.502,248Z"/>
            </g>
            <g transform="matrix(0.310345,0,0,1,312.493,-184)">
                <path d="M83,343L199,343" style="fill:none;stroke:black;stroke-width:1.35px;stroke-dasharray:6.75,6.75,0,0;"/>
            </g>
        </g>
    </g>
    <g transform="matrix(0.246128,0,0,0.235455,305.162,50.3156)">
        <text x="243.362px" y="41.478px" style="font-family:'Arial-BoldMT', 'Arial', sans-serif;font-weight:700;font-size:118.664px;">-zFar</text>
    </g>
    <g transform="matrix(0.246128,0,0,0.235455,-1.79095,260.234)">
        <text x="203.759px" y="41.478px" style="font-family:'Arial-BoldMT', 'Arial', sans-serif;font-weight:700;font-size:118.664px;">-zNear</text>
    </g>
</svg>
