<?xml version="1.0" standalone="yes"?>


<svg version="1.1"
    viewBox="260.0 190.0 405.0 360.0"
    fill="none"
    stroke="none"
    stroke-linecap="square"
    stroke-miterlimit="10"
    xmlns="http://www.w3.org/2000/svg"
    xmlns:xlink="http://www.w3.org/1999/xlink">
  <clipPath id="p.0">
    <path d="m0 0l960.0 0l0 720.0l-960.0 0l0 -720.0z" clip-rule="nonzero"></path>
  </clipPath>
  <g clip-path="url(#p.0)">
    <path fill="#000000" fill-opacity="0.0" d="m0 0l960.0 0l0 720.0l-960.0 0z" fill-rule="nonzero"></path>
    <path fill="#000000" fill-opacity="0.0" d="m352.0 232.0l256.0 0l0 256.0l-256.0 0z" fill-rule="nonzero"></path>
    <g transform="matrix(1.0 0.0 0.0 1.0 352.0 232.0)">
      <clipPath id="p.1">
        <path d="m0 0l256.0 0l0 256.0l-256.0 0z" clip-rule="nonzero"></path>
      </clipPath>
    </g>
    <path fill="#000000" fill-opacity="0.0" d="m320.0 496.0l0 -264.0" fill-rule="nonzero"></path>
    <path stroke="#000000" stroke-width="2.0" stroke-linejoin="round" stroke-linecap="butt" d="m320.0 496.0l0 -252.0" fill-rule="evenodd"></path>
    <path fill="#000000" stroke="#000000" stroke-width="2.0" stroke-linecap="butt" d="m323.30347 244.0l-3.3034668 -9.076202l-3.3034668 9.076202z" fill-rule="evenodd"></path>
    <path fill="#000000" fill-opacity="0.0" d="m360.0 512.0l248.0 0" fill-rule="nonzero"></path>
    <path stroke="#000000" stroke-width="2.0" stroke-linejoin="round" stroke-linecap="butt" d="m360.0 512.0l236.0 0" fill-rule="evenodd"></path>
    <path fill="#000000" stroke="#000000" stroke-width="2.0" stroke-linecap="butt" d="m596.0 515.30347l9.076172 -3.3034668l-9.076172 -3.3034668z" fill-rule="evenodd"></path>
    <path fill="#000000" fill-opacity="0.0" d="m296.0 496.0l48.0 0l0 32.0l-48.0 0z" fill-rule="nonzero"></path>
    <path fill="#000000" d="m305.78125 516.21686q0 -2.421875 0.5 -3.890625q0.5 -1.46875 1.46875 -2.265625q0.984375 -0.796875 2.46875 -0.796875q1.09375 0 1.921875 0.4375q0.828125 0.4375 1.359375 1.28125q0.546875 0.828125 0.84375 2.015625q0.3125 1.1875 0.3125 3.21875q0 2.390625 -0.5 3.859375q-0.484375 1.46875 -1.46875 2.28125q-0.96875 0.796875 -2.46875 0.796875q-1.96875 0 -3.078125 -1.40625q-1.359375 -1.703125 -1.359375 -5.53125zm1.71875 0q0 3.34375 0.78125 4.453125q0.796875 1.109375 1.9375 1.109375q1.15625 0 1.9375 -1.109375q0.78125 -1.125 0.78125 -4.453125q0 -3.359375 -0.78125 -4.46875q-0.78125 -1.109375 -1.953125 -1.109375q-1.15625 0 -1.828125 0.984375q-0.875 1.234375 -0.875 4.59375zm9.563232 6.703125l0 -1.90625l1.90625 0l0 1.90625q0 1.046875 -0.375 1.6875q-0.375 0.65625 -1.171875 1.0l-0.46875 -0.71875q0.53125 -0.21875 0.78125 -0.671875q0.25 -0.453125 0.28125 -1.296875l-0.953125 0zm4.2770386 -6.703125q0 -2.421875 0.5 -3.890625q0.5 -1.46875 1.46875 -2.265625q0.984375 -0.796875 2.46875 -0.796875q1.09375 0 1.921875 0.4375q0.828125 0.4375 1.359375 1.28125q0.546875 0.828125 0.84375 2.015625q0.3125 1.1875 0.3125 3.21875q0 2.390625 -0.5 3.859375q-0.484375 1.46875 -1.46875 2.28125q-0.96875 0.796875 -2.46875 0.796875q-1.96875 0 -3.078125 -1.40625q-1.359375 -1.703125 -1.359375 -5.53125zm1.71875 0q0 3.34375 0.78125 4.453125q0.796875 1.109375 1.9375 1.109375q1.15625 0 1.9375 -1.109375q0.78125 -1.125 0.78125 -4.453125q0 -3.359375 -0.78125 -4.46875q-0.78125 -1.109375 -1.953125 -1.109375q-1.15625 0 -1.828125 0.984375q-0.875 1.234375 -0.875 4.59375z" fill-rule="nonzero"></path>
    <path fill="#000000" fill-opacity="0.0" d="m296.0 192.0l48.0 0l0 32.0l-48.0 0z" fill-rule="nonzero"></path>
    <path fill="#000000" d="m312.07812 218.92l-1.671875 0l0 -10.640625q-0.59375 0.578125 -1.578125 1.15625q-0.984375 0.5625 -1.765625 0.859375l0 -1.625q1.40625 -0.65625 2.453125 -1.59375q1.046875 -0.9375 1.484375 -1.8125l1.078125 0l0 13.65625zm5.0163574 0l0 -1.90625l1.90625 0l0 1.90625l-1.90625 0zm4.2457886 -6.703125q0 -2.421875 0.5 -3.890625q0.5 -1.46875 1.46875 -2.265625q0.984375 -0.796875 2.46875 -0.796875q1.09375 0 1.921875 0.4375q0.828125 0.4375 1.359375 1.28125q0.546875 0.828125 0.84375 2.015625q0.3125 1.1875 0.3125 3.21875q0 2.390625 -0.5 3.859375q-0.484375 1.46875 -1.46875 2.28125q-0.96875 0.796875 -2.46875 0.796875q-1.96875 0 -3.078125 -1.40625q-1.359375 -1.703125 -1.359375 -5.53125zm1.71875 0q0 3.34375 0.78125 4.453125q0.796875 1.109375 1.9375 1.109375q1.15625 0 1.9375 -1.109375q0.78125 -1.125 0.78125 -4.453125q0 -3.359375 -0.78125 -4.46875q-0.78125 -1.109375 -1.953125 -1.109375q-1.15625 0 -1.828125 0.984375q-0.875 1.234375 -0.875 4.59375z" fill-rule="nonzero"></path>
    <path fill="#000000" fill-opacity="0.0" d="m616.0 496.0l48.0 0l0 32.0l-48.0 0z" fill-rule="nonzero"></path>
    <path fill="#000000" d="m632.0781 522.92l-1.671875 0l0 -10.640625q-0.59375 0.578125 -1.578125 1.15625q-0.984375 0.5625 -1.765625 0.859375l0 -1.625q1.40625 -0.65625 2.453125 -1.59375q1.046875 -0.9375 1.484375 -1.8125l1.078125 0l0 13.65625zm5.0163574 0l0 -1.90625l1.90625 0l0 1.90625l-1.90625 0zm4.2457886 -6.703125q0 -2.421875 0.5 -3.890625q0.5 -1.46875 1.46875 -2.265625q0.984375 -0.796875 2.46875 -0.796875q1.09375 0 1.921875 0.4375q0.828125 0.4375 1.359375 1.28125q0.546875 0.828125 0.84375 2.015625q0.3125 1.1875 0.3125 3.21875q0 2.390625 -0.5 3.859375q-0.484375 1.46875 -1.46875 2.28125q-0.96875 0.796875 -2.46875 0.796875q-1.96875 0 -3.078125 -1.40625q-1.359375 -1.703125 -1.359375 -5.53125zm1.71875 0q0 3.34375 0.78125 4.453125q0.796875 1.109375 1.9375 1.109375q1.15625 0 1.9375 -1.109375q0.78125 -1.125 0.78125 -4.453125q0 -3.359375 -0.78125 -4.46875q-0.78125 -1.109375 -1.953125 -1.109375q-1.15625 0 -1.828125 0.984375q-0.875 1.234375 -0.875 4.59375z" fill-rule="nonzero"></path>

    <defs>
      <linearGradient id="svg_6" x2="0" y1="1">
       <stop stop-color="#FF0000" offset="0"/>
       <stop stop-color="#e100ff" offset="0.15"/>
       <stop stop-color="#0000ff" offset="0.30"/>
       <stop stop-color="#00ffff" offset="0.46"/>
       <stop stop-color="#00ff00" offset="0.63"/>
       <stop stop-color="#ffff00" offset="0.83"/>
       <stop stop-color="#ff0000" offset="1"/>
      </linearGradient>
  <radialGradient spreadMethod="pad" r="0.7" id="svg_1010">
   <stop offset="0"    stop-color="#ffff00"/>
   <stop offset="0.65" stop-color="#ff0000"/>
   <stop offset="1"    stop-color="#7b00ff"/>
  </radialGradient>
    </defs>
    <g>
      <rect fill="url(#svg_6)" stroke="#000000" x="352" y="232" width="256" height="256" id="svg_2"/>

  <path stroke="#000000" stroke-width="3" fill="url(#svg_1010)"
     d="M390 277 h76 h105 v37 h-105 v31 h90 v37 h-90 v74 h-76 L390 277" ></path>

  <g transform="matrix(1.07, 0, 0, 1.07, 403, 278)">
   <rect x="0"  y="0"  width="30" height="150" stroke-width="1" stroke="#FFFFFF" fill="none"/>
   <rect x="30" y="0"  width="70" height="30"  stroke-width="1" stroke="#FFFFFF" fill="none"/>
   <rect x="30" y="60" width="37" height="30"  stroke-width="1" stroke="#FFFFFF" fill="none"/>
   <line x1="0"  y1="0"  x2="30"  y2="150" stroke="#FFFFFF"/>
   <line x1="30" y1="0"  x2="100" y2="30"  stroke="#FFFFFF"/>
   <line x1="30" y1="60" x2="67"  y2="90"  stroke="#FFFFFF"/>
  </g>

  <line x1="390" y1="279" x2="300" y2="279" stroke="#000000"></line>
  <text fill="#000000" stroke-width="0" x="285" y="282" font-size="12" font-family="monospace" text-anchor="middle" >0.79</text>
  <line x1="390" y1="437" x2="300" y2="437" stroke="#000000"></line>
  <text fill="#000000" stroke-width="0" x="285" y="440" font-size="12" font-family="monospace" text-anchor="middle" >0.19</text>

  <line x1="403" y1="450" x2="403" y2="520" stroke="#000000"></line>
  <text fill="#000000" stroke-width="0" x="403" y="535" font-size="12" font-family="monospace" text-anchor="middle" >0.22</text>
  <line x1="435" y1="450" x2="435" y2="520" stroke="#000000"></line>
  <text fill="#000000" stroke-width="0" x="435" y="535" font-size="12" font-family="monospace" text-anchor="middle" >0.34</text>


    </g>
  </g>
</svg>

