<?xml version="1.0" encoding="UTF-8" standalone="no"?>
<!DOCTYPE svg PUBLIC "-//W3C//DTD SVG 1.1//EN" "http://www.w3.org/Graphics/SVG/1.1/DTD/svg11.dtd">
<svg width="100%" height="100%" viewBox="0 0 240 140" version="1.1" xmlns="http://www.w3.org/2000/svg" xmlns:xlink="http://www.w3.org/1999/xlink" xml:space="preserve" xmlns:serif="http://www.serif.com/" style="fill-rule:evenodd;clip-rule:evenodd;stroke-miterlimit:1.5;">
    <g transform="matrix(4.21293e-17,-0.889657,0.944059,4.47055e-17,-31.5214,145.434)">
        <g>
            <g>
                <g transform="matrix(0.648649,0,0,1,29.3833,93)">
                    <rect x="21" y="57" width="37" height="21"/>
                </g>
                <g transform="matrix(6.12323e-17,-1,1,6.12323e-17,-1.24628,265)">
                    <path d="M104.5,57L114,78L95,78L104.5,57Z"/>
                </g>
            </g>
        </g>
    </g>
    <g transform="matrix(-1,5.55112e-17,-5.55112e-17,-1,120,77.1495)">
        <circle cx="0" cy="0" r="57.697" style="fill:none;stroke:black;stroke-width:0.5px;stroke-dasharray:5,5,0,0;"/>
    </g>
    <g transform="matrix(-0.760152,4.21969e-17,-4.21969e-17,-0.760152,120,77.1495)">
        <circle cx="0" cy="0" r="57.697" style="fill:none;stroke:rgb(102,102,102);stroke-width:0.13px;stroke-dasharray:2.63,2.63,0,0;"/>
    </g>
    <g transform="matrix(1,0,0,1,0,-127.591)">
        <circle cx="120" cy="147.044" r="14.299" style="fill:rgb(255,0,45);stroke:black;stroke-width:0.5px;stroke-dasharray:2.5,2.5,0,0;"/>
    </g>
    <g transform="matrix(1,0,0,1,-48.0063,-104.424)">
        <circle cx="120" cy="147.044" r="14.299" style="fill:rgb(255,0,45);stroke:black;stroke-width:0.5px;stroke-dasharray:2.5,2.5,0,0;"/>
    </g>
    <g transform="matrix(1,0,0,1,-0.0072594,-126.509)">
        <path d="M7.732,203.658L232.282,203.658" style="fill:none;stroke:black;stroke-width:0.5px;stroke-dasharray:5,5,0,0;"/>
    </g>
    <g transform="matrix(0.550146,0,0,0.550146,15.3275,-14.1354)">
        <text x="-14.151px" y="180.245px" style="font-family:'Arial-BoldMT', 'Arial', sans-serif;font-weight:700;font-size:20px;">z-plane</text>
    </g>
    <g transform="matrix(0.564418,-0.825489,0.825489,0.564418,15.6794,93.0349)">
        <g transform="matrix(1,0,0,1,0,-111.496)">
            <path d="M73.028,143.289L71.994,188.646" style="stroke:rgb(36,116,190);stroke-width:0.5px;"/>
        </g>
        <g transform="matrix(0.790423,0,0,0.790423,-0.415859,-134.143)">
            <path d="M93.012,209.868L95.959,219.712L90.064,219.712L93.012,209.868Z" style="fill:rgb(36,116,190);"/>
        </g>
        <g transform="matrix(-0.790423,-9.6799e-17,9.6799e-17,-0.790423,145.512,243.034)">
            <path d="M93.012,209.868L95.959,219.712L90.064,219.712L93.012,209.868Z" style="fill:rgb(36,116,190);"/>
        </g>
    </g>
    <g transform="matrix(1,0,0,1,0,-111.496)">
        <path d="M120,145.248L120,188.646" style="stroke:rgb(59,152,51);stroke-width:0.5px;"/>
    </g>
    <g transform="matrix(-0.790423,-9.6799e-17,9.6799e-17,-0.790423,193.519,243.034)">
        <path d="M93.012,209.868L95.959,219.712L90.064,219.712L93.012,209.868Z" style="fill:rgb(59,152,51);"/>
    </g>
    <g transform="matrix(0.790423,0,0,0.790423,46.4814,-132.133)">
        <path d="M93.012,209.868L95.959,219.712L90.064,219.712L93.012,209.868Z" style="fill:rgb(59,152,51);"/>
    </g>
    <g transform="matrix(-0.35548,-0.705977,0.705977,-0.35548,-25.6039,168.253)">
        <path d="M93.012,209.868L95.959,219.712L90.064,219.712L93.012,209.868Z"/>
    </g>
</svg>
