<?xml version="1.0" encoding="UTF-8" standalone="no"?>
<!DOCTYPE svg PUBLIC "-//W3C//DTD SVG 1.1//EN" "http://www.w3.org/Graphics/SVG/1.1/DTD/svg11.dtd">
<svg width="100%" height="100%" viewBox="0 0 500 500" version="1.1" xmlns="http://www.w3.org/2000/svg" xmlns:xlink="http://www.w3.org/1999/xlink" xml:space="preserve" xmlns:serif="http://www.serif.com/" style="fill-rule:evenodd;clip-rule:evenodd;stroke-linecap:round;stroke-linejoin:round;stroke-miterlimit:1.5;">
    <path d="M250,90L400,181.325" style="fill:none;stroke:black;stroke-width:6.25px;"/>
    <g transform="matrix(1,0,0,1,-150,238.675)">
        <path d="M250,82.545L400,181.325" style="fill:none;stroke:black;stroke-width:6.25px;"/>
    </g>
    <path d="M250,420.282L400,320" style="fill:none;stroke:black;stroke-width:6.25px;"/>
    <g transform="matrix(1,0,0,1,-185,-280.282)">
        <path d="M285,460.282L435,370.282" style="fill:none;stroke:black;stroke-width:6.25px;"/>
    </g>
    <path d="M100,180L100,321.22" style="fill:none;stroke:black;stroke-width:6.25px;"/>
    <g transform="matrix(1,0,0,1,300,-1.22038)">
        <path d="M100,180L100,321.22" style="fill:none;stroke:black;stroke-width:6.25px;"/>
    </g>
    <g>
        <g transform="matrix(1,0,0,1,150,-10)">
            <g transform="matrix(2.60633,0,0,2.60633,-160.143,-159.849)">
                <circle cx="99.812" cy="99.699" r="7.674" style="fill:rgb(55,55,55);"/>
            </g>
            <g transform="matrix(0.713569,0,0,0.574559,28.7166,53.2827)">
                <text x="81.827px" y="99.205px" style="font-family:'Arial-BoldMT', 'Arial', sans-serif;font-weight:700;font-size:50px;fill:rgb(254,255,0);">A</text>
            </g>
        </g>
        <g transform="matrix(1,0,0,1,300,80)">
            <g transform="matrix(2.60633,0,0,2.60633,-160.143,-159.849)">
                <circle cx="99.812" cy="99.699" r="7.674" style="fill:rgb(55,55,55);"/>
            </g>
            <g transform="matrix(0.713569,0,0,0.574559,28.7166,53.2827)">
                <text x="81.827px" y="99.205px" style="font-family:'Arial-BoldMT', 'Arial', sans-serif;font-weight:700;font-size:50px;fill:rgb(254,255,0);">B</text>
            </g>
        </g>
        <g transform="matrix(1,0,0,1,300,220)">
            <g transform="matrix(2.60633,0,0,2.60633,-160.143,-159.849)">
                <circle cx="99.812" cy="99.699" r="7.674" style="fill:rgb(55,55,55);"/>
            </g>
            <g transform="matrix(0.713569,0,0,0.574559,28.7166,53.2827)">
                <text x="81.827px" y="99.205px" style="font-family:'Arial-BoldMT', 'Arial', sans-serif;font-weight:700;font-size:50px;fill:rgb(254,255,0);">C</text>
            </g>
        </g>
        <g transform="matrix(1,0,0,1,150,320.282)">
            <g transform="matrix(2.60633,0,0,2.60633,-160.143,-159.849)">
                <circle cx="99.812" cy="99.699" r="7.674" style="fill:rgb(55,55,55);"/>
            </g>
            <g transform="matrix(0.713569,0,0,0.574559,28.7166,53.2827)">
                <text x="81.827px" y="99.205px" style="font-family:'Arial-BoldMT', 'Arial', sans-serif;font-weight:700;font-size:50px;fill:rgb(254,255,0);">D</text>
            </g>
        </g>
        <g transform="matrix(1,0,0,1,-1.42109e-14,220)">
            <g transform="matrix(2.60633,0,0,2.60633,-160.143,-159.849)">
                <circle cx="99.812" cy="99.699" r="7.674" style="fill:rgb(55,55,55);"/>
            </g>
            <g transform="matrix(0.713569,0,0,0.574559,28.7166,53.2827)">
                <text x="83.207px" y="99.205px" style="font-family:'Arial-BoldMT', 'Arial', sans-serif;font-weight:700;font-size:50px;fill:rgb(254,255,0);">E</text>
            </g>
        </g>
        <g transform="matrix(1,0,0,1,-5.68434e-14,80)">
            <g transform="matrix(2.60633,0,0,2.60633,-160.143,-159.849)">
                <circle cx="99.812" cy="99.699" r="7.674" style="fill:rgb(55,55,55);"/>
            </g>
            <g transform="matrix(0.713569,0,0,0.574559,28.7166,53.2827)">
                <text x="84.611px" y="99.205px" style="font-family:'Arial-BoldMT', 'Arial', sans-serif;font-weight:700;font-size:50px;fill:rgb(254,255,0);">F</text>
            </g>
        </g>
    </g>
</svg>
