<?xml version="1.0" encoding="UTF-8" standalone="no"?>
<!DOCTYPE svg PUBLIC "-//W3C//DTD SVG 1.1//EN" "http://www.w3.org/Graphics/SVG/1.1/DTD/svg11.dtd">
<svg width="100%" height="100%" viewBox="0 0 400 400" version="1.1" xmlns="http://www.w3.org/2000/svg" xmlns:xlink="http://www.w3.org/1999/xlink" xml:space="preserve" xmlns:serif="http://www.serif.com/" style="fill-rule:evenodd;clip-rule:evenodd;stroke-linejoin:round;stroke-miterlimit:2;">
    <g transform="matrix(1,0,0,1,-50,-50)">
        <path d="M250,250L100,220L250.309,100L250,250Z" style="fill:rgb(142,156,255);"/>
    </g>
    <g transform="matrix(1,0,0,1,-50,-50)">
        <path d="M250,252.146L250.309,100L400,220L250,252.146Z" style="fill:rgb(67,89,255);"/>
    </g>
    <g transform="matrix(1,0,0,1,-50,-50)">
        <path d="M250,252.146L400,220L330,380L250,252.146Z" style="fill:rgb(25,52,255);"/>
    </g>
    <g transform="matrix(1,0,0,1,-50,-50)">
        <path d="M250.309,250L328.596,377.756L170,380L250.309,250Z" style="fill:rgb(0,19,163);"/>
    </g>
    <g transform="matrix(1,0,0,1,-50,-50)">
        <g transform="matrix(1,0,0,1,150.39,150)">
            <g transform="matrix(2.60633,0,0,2.60633,-160.143,-159.849)">
                <circle cx="99.812" cy="99.699" r="7.674" style="fill:rgb(55,55,55);"/>
            </g>
            <g transform="matrix(0.713569,0,0,0.574559,28.7166,53.2827)">
                <text x="81.827px" y="99.205px" style="font-family:'Arial-BoldMT', 'Arial', sans-serif;font-weight:700;font-size:50px;fill:rgb(254,255,0);">A</text>
            </g>
        </g>
        <g transform="matrix(1,0,0,1,-1.42109e-14,120)">
            <g transform="matrix(2.60633,0,0,2.60633,-160.143,-159.849)">
                <circle cx="99.812" cy="99.699" r="7.674" style="fill:rgb(55,55,55);"/>
            </g>
            <g transform="matrix(0.713569,0,0,0.574559,28.7166,53.2827)">
                <text x="81.827px" y="99.205px" style="font-family:'Arial-BoldMT', 'Arial', sans-serif;font-weight:700;font-size:50px;fill:rgb(254,255,0);">B</text>
            </g>
        </g>
        <g transform="matrix(1,0,0,1,150,0)">
            <g transform="matrix(2.60633,0,0,2.60633,-160.143,-159.849)">
                <circle cx="99.812" cy="99.699" r="7.674" style="fill:rgb(55,55,55);"/>
            </g>
            <g transform="matrix(0.713569,0,0,0.574559,28.7166,53.2827)">
                <text x="81.827px" y="99.205px" style="font-family:'Arial-BoldMT', 'Arial', sans-serif;font-weight:700;font-size:50px;fill:rgb(254,255,0);">C</text>
            </g>
        </g>
        <g transform="matrix(1,0,0,1,300,120)">
            <g transform="matrix(2.60633,0,0,2.60633,-160.143,-159.849)">
                <circle cx="99.812" cy="99.699" r="7.674" style="fill:rgb(55,55,55);"/>
            </g>
            <g transform="matrix(0.713569,0,0,0.574559,28.7166,53.2827)">
                <text x="81.827px" y="99.205px" style="font-family:'Arial-BoldMT', 'Arial', sans-serif;font-weight:700;font-size:50px;fill:rgb(254,255,0);">D</text>
            </g>
        </g>
        <g transform="matrix(1,0,0,1,230,280)">
            <g transform="matrix(2.60633,0,0,2.60633,-160.143,-159.849)">
                <circle cx="99.812" cy="99.699" r="7.674" style="fill:rgb(55,55,55);"/>
            </g>
            <g transform="matrix(0.713569,0,0,0.574559,28.7166,53.2827)">
                <text x="83.207px" y="99.205px" style="font-family:'Arial-BoldMT', 'Arial', sans-serif;font-weight:700;font-size:50px;fill:rgb(254,255,0);">E</text>
            </g>
        </g>
        <g transform="matrix(1,0,0,1,70,280)">
            <g transform="matrix(2.60633,0,0,2.60633,-160.143,-159.849)">
                <circle cx="99.812" cy="99.699" r="7.674" style="fill:rgb(55,55,55);"/>
            </g>
            <g transform="matrix(0.713569,0,0,0.574559,28.7166,53.2827)">
                <text x="84.611px" y="99.205px" style="font-family:'Arial-BoldMT', 'Arial', sans-serif;font-weight:700;font-size:50px;fill:rgb(254,255,0);">F</text>
            </g>
        </g>
    </g>
</svg>
