<?xml version="1.0" encoding="UTF-8" standalone="no"?>
<!DOCTYPE svg PUBLIC "-//W3C//DTD SVG 1.1//EN" "http://www.w3.org/Graphics/SVG/1.1/DTD/svg11.dtd">
<svg width="100%" height="100%" viewBox="0 0 300 200" version="1.1" xmlns="http://www.w3.org/2000/svg" xmlns:xlink="http://www.w3.org/1999/xlink" xml:space="preserve" xmlns:serif="http://www.serif.com/" style="fill-rule:evenodd;clip-rule:evenodd;stroke-linecap:round;stroke-linejoin:round;stroke-miterlimit:1.5;">
    <g>
        <path d="M10,0L10,200" style="fill:none;stroke:rgb(175,175,175);stroke-width:0.21px;"/>
        <g transform="matrix(1,0,0,1,10,0)">
            <path d="M10,0L10,200" style="fill:none;stroke:rgb(175,175,175);stroke-width:0.21px;"/>
        </g>
        <g transform="matrix(1,0,0,1,20,0)">
            <path d="M10,0L10,200" style="fill:none;stroke:rgb(175,175,175);stroke-width:0.21px;"/>
        </g>
        <g transform="matrix(1,0,0,1,30,0)">
            <path d="M10,0L10,200" style="fill:none;stroke:rgb(175,175,175);stroke-width:0.21px;"/>
        </g>
        <g transform="matrix(1,0,0,1,40,0)">
            <path d="M10,0L10,200" style="fill:none;stroke:rgb(175,175,175);stroke-width:0.21px;"/>
        </g>
        <g transform="matrix(1,0,0,1,50,0)">
            <path d="M10,0L10,200" style="fill:none;stroke:rgb(175,175,175);stroke-width:0.21px;"/>
        </g>
        <g transform="matrix(1,0,0,1,60,0)">
            <path d="M10,0L10,200" style="fill:none;stroke:rgb(175,175,175);stroke-width:0.21px;"/>
        </g>
        <g transform="matrix(1,0,0,1,70,0)">
            <path d="M10,0L10,200" style="fill:none;stroke:rgb(175,175,175);stroke-width:0.21px;"/>
        </g>
        <g transform="matrix(1,0,0,1,80,0)">
            <path d="M10,0L10,200" style="fill:none;stroke:rgb(175,175,175);stroke-width:0.21px;"/>
        </g>
        <g transform="matrix(1,0,0,1,90,0)">
            <path d="M10,0L10,200" style="fill:none;stroke:rgb(175,175,175);stroke-width:0.21px;"/>
        </g>
        <g transform="matrix(1,0,0,1,100,0)">
            <path d="M10,0L10,200" style="fill:none;stroke:rgb(175,175,175);stroke-width:0.21px;"/>
        </g>
        <g transform="matrix(1,0,0,1,110,0)">
            <path d="M10,0L10,200" style="fill:none;stroke:rgb(175,175,175);stroke-width:0.21px;"/>
        </g>
        <g transform="matrix(1,0,0,1,120,0)">
            <path d="M10,0L10,200" style="fill:none;stroke:rgb(175,175,175);stroke-width:0.21px;"/>
        </g>
        <g transform="matrix(1,0,0,1,130,0)">
            <path d="M10,0L10,200" style="fill:none;stroke:rgb(175,175,175);stroke-width:0.21px;"/>
        </g>
        <g transform="matrix(1,0,0,1,140,0)">
            <path d="M10,0L10,200" style="fill:none;stroke:rgb(175,175,175);stroke-width:0.21px;"/>
        </g>
        <g transform="matrix(1,0,0,1,150,0)">
            <path d="M10,0L10,200" style="fill:none;stroke:rgb(175,175,175);stroke-width:0.21px;"/>
        </g>
        <g transform="matrix(1,0,0,1,160,0)">
            <path d="M10,0L10,200" style="fill:none;stroke:rgb(175,175,175);stroke-width:0.21px;"/>
        </g>
        <g transform="matrix(1,0,0,1,170,0)">
            <path d="M10,0L10,200" style="fill:none;stroke:rgb(175,175,175);stroke-width:0.21px;"/>
        </g>
        <g transform="matrix(1,0,0,1,180,0)">
            <path d="M10,0L10,200" style="fill:none;stroke:rgb(175,175,175);stroke-width:0.21px;"/>
        </g>
        <g transform="matrix(1,0,0,1,190,0)">
            <path d="M10,0L10,200" style="fill:none;stroke:rgb(175,175,175);stroke-width:0.21px;"/>
        </g>
        <g transform="matrix(1,0,0,1,200,0)">
            <path d="M10,0L10,200" style="fill:none;stroke:rgb(175,175,175);stroke-width:0.21px;"/>
        </g>
        <g transform="matrix(1,0,0,1,210,0)">
            <path d="M10,0L10,200" style="fill:none;stroke:rgb(175,175,175);stroke-width:0.21px;"/>
        </g>
        <g transform="matrix(1,0,0,1,220,0)">
            <path d="M10,0L10,200" style="fill:none;stroke:rgb(175,175,175);stroke-width:0.21px;"/>
        </g>
        <g transform="matrix(1,0,0,1,230,0)">
            <path d="M10,0L10,200" style="fill:none;stroke:rgb(175,175,175);stroke-width:0.21px;"/>
        </g>
        <g transform="matrix(1,0,0,1,240,0)">
            <path d="M10,0L10,200" style="fill:none;stroke:rgb(175,175,175);stroke-width:0.21px;"/>
        </g>
        <g transform="matrix(1,0,0,1,250,0)">
            <path d="M10,0L10,200" style="fill:none;stroke:rgb(175,175,175);stroke-width:0.21px;"/>
        </g>
        <g transform="matrix(1,0,0,1,260,0)">
            <path d="M10,0L10,200" style="fill:none;stroke:rgb(175,175,175);stroke-width:0.21px;"/>
        </g>
        <g transform="matrix(1,0,0,1,270,0)">
            <path d="M10,0L10,200" style="fill:none;stroke:rgb(175,175,175);stroke-width:0.21px;"/>
        </g>
        <g transform="matrix(1,0,0,1,280,0)">
            <path d="M10,0L10,200" style="fill:none;stroke:rgb(175,175,175);stroke-width:0.21px;"/>
        </g>
    </g>
    <g>
        <path d="M25,50L25,150" style="fill:none;stroke:black;stroke-width:1px;"/>
        <path d="M0,190L300,190" style="fill:none;stroke:rgb(175,175,175);stroke-width:0.21px;"/>
        <g transform="matrix(1,0,0,1,0,-10)">
            <path d="M0,190L300,190" style="fill:none;stroke:rgb(175,175,175);stroke-width:0.21px;"/>
        </g>
        <g transform="matrix(1,0,0,1,0,-20)">
            <path d="M0,190L300,190" style="fill:none;stroke:rgb(175,175,175);stroke-width:0.21px;"/>
        </g>
        <g transform="matrix(1,0,0,1,0,-30)">
            <path d="M0,190L300,190" style="fill:none;stroke:rgb(175,175,175);stroke-width:0.21px;"/>
        </g>
        <g transform="matrix(1,0,0,1,0,-40)">
            <path d="M0,190L300,190" style="fill:none;stroke:rgb(175,175,175);stroke-width:0.21px;"/>
        </g>
        <g transform="matrix(1,0,0,1,0,-50)">
            <path d="M0,190L300,190" style="fill:none;stroke:rgb(175,175,175);stroke-width:0.21px;"/>
        </g>
        <g transform="matrix(1,0,0,1,0,-60)">
            <path d="M0,190L300,190" style="fill:none;stroke:rgb(175,175,175);stroke-width:0.21px;"/>
        </g>
        <g transform="matrix(1,0,0,1,0,-70)">
            <path d="M0,190L300,190" style="fill:none;stroke:rgb(175,175,175);stroke-width:0.21px;"/>
        </g>
        <g transform="matrix(1,0,0,1,0,-80)">
            <path d="M0,190L300,190" style="fill:none;stroke:rgb(175,175,175);stroke-width:0.21px;"/>
        </g>
        <g transform="matrix(1,0,0,1,0,-90)">
            <path d="M0,190L300,190" style="fill:none;stroke:rgb(175,175,175);stroke-width:0.21px;"/>
        </g>
        <g transform="matrix(1,0,0,1,0,-100)">
            <path d="M0,190L300,190" style="fill:none;stroke:rgb(175,175,175);stroke-width:0.21px;"/>
        </g>
        <g transform="matrix(1,0,0,1,0,-110)">
            <path d="M0,190L300,190" style="fill:none;stroke:rgb(175,175,175);stroke-width:0.21px;"/>
        </g>
        <g transform="matrix(1,0,0,1,0,-120)">
            <path d="M0,190L300,190" style="fill:none;stroke:rgb(175,175,175);stroke-width:0.21px;"/>
        </g>
        <g transform="matrix(1,0,0,1,0,-130)">
            <path d="M0,190L300,190" style="fill:none;stroke:rgb(175,175,175);stroke-width:0.21px;"/>
        </g>
        <g transform="matrix(1,0,0,1,0,-140)">
            <path d="M0,190L300,190" style="fill:none;stroke:rgb(175,175,175);stroke-width:0.21px;"/>
        </g>
        <g transform="matrix(1,0,0,1,0,-150)">
            <path d="M0,190L300,190" style="fill:none;stroke:rgb(175,175,175);stroke-width:0.21px;"/>
        </g>
        <g transform="matrix(1,0,0,1,0,-160)">
            <path d="M0,190L300,190" style="fill:none;stroke:rgb(175,175,175);stroke-width:0.21px;"/>
        </g>
        <g transform="matrix(1,0,0,1,0,-170)">
            <path d="M0,190L300,190" style="fill:none;stroke:rgb(175,175,175);stroke-width:0.21px;"/>
        </g>
        <g transform="matrix(1,0,0,1,0,-180)">
            <path d="M0,190L300,190" style="fill:none;stroke:rgb(175,175,175);stroke-width:0.21px;"/>
        </g>
        <g transform="matrix(1,0,0,1,65,0)">
            <path d="M25,50L25,150" style="fill:none;stroke:black;stroke-width:1px;"/>
        </g>
        <g transform="matrix(1,0,0,1,100,0)">
            <path d="M25,50L25,150" style="fill:none;stroke:black;stroke-width:1px;"/>
        </g>
        <g transform="matrix(1,0,0,1,160,0)">
            <path d="M25,50L25,150" style="fill:none;stroke:black;stroke-width:1px;"/>
        </g>
        <g transform="matrix(1,0,0,1,200,1.42109e-14)">
            <path d="M25,50L25,150" style="fill:none;stroke:black;stroke-width:1px;"/>
        </g>
    </g>
    <g transform="matrix(1,0,0,1,-7.32409,122)">
        <text x="27.751px" y="42.426px" style="font-family:'ArialMT', 'Arial', sans-serif;font-size:8.333px;">25</text>
    </g>
    <g transform="matrix(1,0,0,1,57.6759,122)">
        <text x="27.751px" y="42.426px" style="font-family:'ArialMT', 'Arial', sans-serif;font-size:8.333px;">90</text>
    </g>
    <g transform="matrix(1,0,0,1,92.6759,122)">
        <text x="25.434px" y="42.426px" style="font-family:'ArialMT', 'Arial', sans-serif;font-size:8.333px;">125</text>
    </g>
    <g transform="matrix(1,0,0,1,152.676,122)">
        <text x="25.434px" y="42.426px" style="font-family:'ArialMT', 'Arial', sans-serif;font-size:8.333px;">185</text>
    </g>
    <g transform="matrix(1,0,0,1,192.676,122)">
        <text x="25.434px" y="42.426px" style="font-family:'ArialMT', 'Arial', sans-serif;font-size:8.333px;">225</text>
    </g>
    <g transform="matrix(1,0,0,1,-1,0)">
        <circle cx="101" cy="100" r="4" style="fill:rgb(252,0,0);"/>
    </g>
    <g transform="matrix(1,0,0,1,99,0)">
        <circle cx="101" cy="100" r="4" style="fill:rgb(0,181,10);"/>
    </g>
    <g transform="matrix(1,0,0,1,6,3.48824)">
        <text x="-0.317px" y="149.456px" style="font-family:'ArialMT', 'Arial', sans-serif;font-size:8.333px;">50</text>
    </g>
    <g transform="matrix(1,0,0,1,6,-96.5118)">
        <text x="-2.634px" y="149.456px" style="font-family:'ArialMT', 'Arial', sans-serif;font-size:8.333px;">150</text>
    </g>
</svg>
