<?xml version="1.0" encoding="UTF-8" standalone="no"?>
<!DOCTYPE svg PUBLIC "-//W3C//DTD SVG 1.1//EN" "http://www.w3.org/Graphics/SVG/1.1/DTD/svg11.dtd">
<svg width="100%" height="100%" viewBox="0 0 400 300" version="1.1" xmlns="http://www.w3.org/2000/svg" xmlns:xlink="http://www.w3.org/1999/xlink" xml:space="preserve" style="fill-rule:evenodd;clip-rule:evenodd;stroke-linecap:round;stroke-linejoin:round;stroke-miterlimit:1.41421;">
    <rect x="0" y="0" width="400" height="300" style="fill:rgb(255,233,197);stroke-width:1px;stroke:rgb(210,210,210);"/>
    <g transform="matrix(0.7,0,0,0.7,10,1.42109e-14)">
        <g transform="matrix(1,0,0,1.2,0,-40)">
            <rect x="100" y="100" width="200" height="100" style="fill:rgb(122,219,3);"/>
        </g>
        <g transform="matrix(1.2105,0,0,1.2105,-42.1,-40.7476)">
            <path d="M200,110L208.981,137.639L238.042,137.639L214.531,154.721L223.511,182.361L200,165.279L176.489,182.361L185.469,154.721L161.958,137.639L191.019,137.639L200,110Z" style="fill:rgb(212,64,210);"/>
        </g>
    </g>
    <g>
        <path d="M20,140L380,140" style="fill:rgb(214,208,208);stroke-width:1px;stroke:rgb(210,210,210);"/>
        <path d="M20,140L380,140" style="fill:rgb(214,208,208);stroke-width:1px;stroke:rgb(210,210,210);"/>
        <g transform="matrix(-1.60812e-16,-1,1,-1.60812e-16,-70,242.871)">
            <path d="M102.871,80L105.742,90L100,90L102.871,80Z" style="fill:rgb(214,208,208);stroke-width:1px;stroke:rgb(210,210,210);"/>
        </g>
        <g transform="matrix(2.83277e-16,1,-1,2.83277e-16,470,37.1289)">
            <path d="M102.871,80L105.742,90L100,90L102.871,80Z" style="fill:rgb(214,208,208);stroke-width:1px;stroke:rgb(210,210,210);"/>
        </g>
    </g>
    <g transform="matrix(1,0,0,1,0,-84)">
        <path d="M20,140L380,140" style="fill:none;stroke-width:1px;stroke:black;"/>
        <path d="M20,140L380,140" style="fill:none;stroke-width:1px;stroke:black;"/>
        <g transform="matrix(-1.60812e-16,-1,1,-1.60812e-16,-70,242.871)">
            <path d="M102.871,80L105.742,90L100,90L102.871,80Z" style="fill:black;"/>
        </g>
        <g transform="matrix(2.83277e-16,1,-1,2.83277e-16,470,37.1289)">
            <path d="M102.871,80L105.742,90L100,90L102.871,80Z" style="fill:black;"/>
        </g>
    </g>
    <g transform="matrix(1,0,0,1,60,0)">
        <g transform="matrix(1,0,0,1,57.1289,-70)">
            <path d="M102.871,80L105.742,90L100,90L102.871,80Z" style="fill:rgb(214,208,208);stroke-width:1px;stroke:rgb(210,210,210);"/>
        </g>
        <g transform="matrix(-1,3.21625e-16,-3.21625e-16,-1,262.871,370)">
            <path d="M102.871,80L105.742,90L100,90L102.871,80Z" style="fill:rgb(214,208,208);stroke-width:1px;stroke:rgb(210,210,210);"/>
        </g>
        <path d="M160,20L160,280" style="fill:rgb(214,208,208);stroke-width:1px;stroke:rgb(210,210,210);"/>
    </g>
    <g transform="matrix(1,0,0,1,-80,0)">
        <g transform="matrix(1,0,0,1,57.1289,-70)">
            <path d="M102.871,80L105.742,90L100,90L102.871,80Z" style="fill:black;"/>
        </g>
        <g transform="matrix(-1,3.21625e-16,-3.21625e-16,-1,262.871,370)">
            <path d="M102.871,80L105.742,90L100,90L102.871,80Z" style="fill:black;"/>
        </g>
        <path d="M160,20L160,280" style="fill:black;stroke-width:1px;stroke:black;"/>
    </g>
    <g transform="matrix(1.05547,0,0,1.07392,-131.43,-89.5705)">
        <text x="133.997px" y="129.052px" style="font-family:'Courier';font-size:12px;fill:black;">(-tw,-th)</text>
    </g>
    <g transform="matrix(1,0,0,1,-3.29818,4.25221)">
        <text x="226.268px" y="148.148px" style="font-family:'Courier';font-size:12px;fill:black;">(previous origin)</text>
    </g>
</svg>
