<?xml version="1.0" encoding="UTF-8" standalone="no"?>
<!DOCTYPE svg PUBLIC "-//W3C//DTD SVG 1.1//EN" "http://www.w3.org/Graphics/SVG/1.1/DTD/svg11.dtd">
<svg width="100%" height="100%" viewBox="0 0 400 340" version="1.1" xmlns="http://www.w3.org/2000/svg" xmlns:xlink="http://www.w3.org/1999/xlink" xml:space="preserve" xmlns:serif="http://www.serif.com/" style="fill-rule:evenodd;clip-rule:evenodd;stroke-linecap:round;stroke-linejoin:round;stroke-miterlimit:1.5;">
    <path d="M340,280L340,246.621L300,280L300,20L340,53.379L340,20L386.306,20L386.306,280L340,280Z" style="fill:rgb(113,190,160);"/>
    <rect x="20" y="20" width="10" height="260" style="fill:rgb(169,113,190);"/>
    <path d="M50.454,33.485L40,30L50.454,26.515L50.454,33.485Z"/>
    <path d="M280,30L48.364,30" style="fill:none;stroke:black;stroke-width:1px;"/>
    <g transform="matrix(1,0,0,1,-2.84217e-14,40)">
        <g transform="matrix(1,-0,-0,1,2.84217e-14,-40)">
            <path d="M50.454,153.485L40,150L50.454,146.515L50.454,153.485Z"/>
            <path d="M280,150L48.364,150" style="fill:none;stroke:black;stroke-width:1px;"/>
        </g>
    </g>
    <g transform="matrix(1,0,0,1,0,23.1054)">
        <g transform="matrix(1,-0,-0,1,0,-23.1054)">
            <path d="M50.454,83.485L40,80L50.454,76.515L50.454,83.485Z"/>
            <path d="M280,80L48.364,80" style="fill:none;stroke:black;stroke-width:1px;"/>
        </g>
    </g>
    <g transform="matrix(1,0,0,1,0,60)">
        <g transform="matrix(1,-0,-0,1,0,-60)">
            <path d="M50.454,223.485L40,220L50.454,216.515L50.454,223.485Z"/>
            <path d="M280,220L48.364,220" style="fill:none;stroke:black;stroke-width:1px;"/>
        </g>
    </g>
    <g transform="matrix(1,0,0,-1.08296,0,309.126)">
        <g transform="matrix(1,0,0,-0.923393,-0,285.445)">
            <path d="M50.462,278.56L40,275.097L50.447,271.59L50.462,278.56Z"/>
            <path d="M278.43,274.585C278.43,274.585 90.598,274.989 48.363,275.079" style="fill:none;stroke:black;stroke-width:1px;"/>
        </g>
    </g>
    <g transform="matrix(1,0,0,1,-13.136,35.7662)">
        <text x="112.444px" y="279.849px" style="font-family:'ArialMT', 'Arial', sans-serif;font-size:20.833px;">orthographic projection</text>
    </g>
</svg>
