<?xml version="1.0" encoding="UTF-8" standalone="no"?>
<!DOCTYPE svg PUBLIC "-//W3C//DTD SVG 1.1//EN" "http://www.w3.org/Graphics/SVG/1.1/DTD/svg11.dtd">
<svg width="100%" height="100%" viewBox="0 0 400 300" version="1.1" xmlns="http://www.w3.org/2000/svg" xmlns:xlink="http://www.w3.org/1999/xlink" xml:space="preserve" xmlns:serif="http://www.serif.com/" style="fill-rule:evenodd;clip-rule:evenodd;stroke-linecap:round;stroke-linejoin:round;stroke-miterlimit:1.5;">
    <g transform="matrix(1,0,0,1,-20,-77.3744)">
        <rect x="100" y="100" width="300" height="200" style="fill:rgb(146,146,146);"/>
    </g>
    <g transform="matrix(0.435292,0,0,0.435292,183.569,-12.4378)">
        <text x="271.795px" y="126.497px" style="font-family:'ArialMT', 'Arial', sans-serif;font-size:50px;">canvas</text>
    </g>
    <g transform="matrix(1,0,0,1,-20,-77.3744)">
        <rect x="40" y="150" width="100" height="100" style="fill:rgb(255,33,33);fill-opacity:0.69;"/>
    </g>
    <g transform="matrix(1,0,0,1,-17.5644,-82.3744)">
        <g transform="matrix(1,-0,-0,1,17.5644,82.3744)">
            <path d="M71.757,160.018L67.564,137.626L57.483,158.055L71.757,160.018Z"/>
            <path d="M65.209,154.754C60.956,185.672 52.436,247.626 52.436,247.626" style="fill:none;stroke:black;stroke-width:3.33px;"/>
        </g>
    </g>
    <g transform="matrix(0.297736,0,0,0.297736,-47.7922,51.8335)">
        <text x="271.795px" y="126.497px" style="font-family:'ArialMT', 'Arial', sans-serif;font-size:50px;">32x32 point</text>
    </g>
    <g transform="matrix(1,0,0,1,-20,-77.3744)">
        <circle cx="90" cy="200" r="4.871"/>
    </g>
    <g transform="matrix(0.405444,0,0,0.405444,-2.04211,132.977)">
        <text x="52.412px" y="337.371px" style="font-family:'ArialMT', 'Arial', sans-serif;font-size:50px;">center outside canvas</text>
    </g>
</svg>
