<?xml version="1.0" encoding="UTF-8" standalone="no"?>
<!DOCTYPE svg PUBLIC "-//W3C//DTD SVG 1.1//EN" "http://www.w3.org/Graphics/SVG/1.1/DTD/svg11.dtd">
<svg width="100%" height="100%" viewBox="0 0 500 100" version="1.1" xmlns="http://www.w3.org/2000/svg" xmlns:xlink="http://www.w3.org/1999/xlink" xml:space="preserve" xmlns:serif="http://www.serif.com/" style="fill-rule:evenodd;clip-rule:evenodd;stroke-linecap:round;stroke-linejoin:round;stroke-miterlimit:1.5;">
    <g transform="matrix(0.707107,0.707107,-0.707107,0.707107,243.844,-272.976)">
        <g transform="matrix(1,0,0,1,118.275,137.209)">
            <path d="M102.068,134.707L102.068,85.917" style="fill:rgb(11,186,31);stroke:rgb(11,186,30);stroke-width:1px;"/>
        </g>
        <g transform="matrix(1,0,0,1.00047,131.351,128.906)">
            <path d="M88.992,85.917L94.548,102.433L83.436,102.433L88.992,85.917Z" style="fill:rgb(11,186,31);stroke:rgb(11,186,30);stroke-width:1px;"/>
        </g>
    </g>
    <g transform="matrix(-1,-1.22465e-16,1.22465e-16,-1,363.532,298.323)">
        <g transform="matrix(1,0,0,1,118.275,137.209)">
            <path d="M102.068,134.707L102.068,85.917" style="fill:rgb(0,9,1);stroke:rgb(0,12,1);stroke-width:1px;"/>
        </g>
        <g transform="matrix(1,0,0,1.00047,131.351,128.906)">
            <path d="M88.992,85.917L94.548,102.433L83.436,102.433L88.992,85.917Z" style="fill:rgb(0,9,1);stroke:rgb(0,12,1);stroke-width:1px;"/>
        </g>
    </g>
    <g transform="matrix(0.557512,0,0,0.591172,56.2374,-80.1832)">
        <text x="188.797px" y="244.045px" style="font-family:'ArialMT', 'Arial', sans-serif;font-size:50px;">dot</text>
    </g>
    <g transform="matrix(1,0,0,1,44.8289,-186.1)">
        <text x="209.504px" y="251.484px" style="font-family:'ArialMT', 'Arial', sans-serif;font-size:29.583px;">= -0.707</text>
    </g>
</svg>
