<?xml version="1.0" encoding="UTF-8" standalone="no"?>
<!DOCTYPE svg PUBLIC "-//W3C//DTD SVG 1.1//EN" "http://www.w3.org/Graphics/SVG/1.1/DTD/svg11.dtd">
<svg width="100%" height="100%" viewBox="0 0 500 140" version="1.1" xmlns="http://www.w3.org/2000/svg" xmlns:xlink="http://www.w3.org/1999/xlink" xml:space="preserve" xmlns:serif="http://www.serif.com/" style="fill-rule:evenodd;clip-rule:evenodd;stroke-linecap:round;stroke-linejoin:round;stroke-miterlimit:1.5;">
    <g transform="matrix(1,0,0,1,-13.9532,-166.019)">
        <text x="255.555px" y="251.484px" style="font-family:'ArialMT', 'Arial', sans-serif;font-size:29.583px;">=</text>
    </g>
    <g transform="matrix(1,0,0,1,2.18014,-143.684)">
        <g transform="matrix(1,0,0,1,118.275,137.209)">
            <path d="M102.068,134.707L102.068,85.917" style="fill:rgb(11,186,31);stroke:rgb(11,186,30);stroke-width:1px;"/>
        </g>
        <g transform="matrix(1,0,0,1.00047,131.351,128.906)">
            <path d="M88.992,85.917L94.548,102.433L83.436,102.433L88.992,85.917Z" style="fill:rgb(11,186,31);stroke:rgb(11,186,30);stroke-width:1px;"/>
        </g>
    </g>
    <g transform="matrix(1,0,0,1,2.18014,-196.942)">
        <g transform="matrix(1,0,0,1,118.275,137.209)">
            <path d="M102.068,134.707L102.068,85.917" style="fill:rgb(11,186,31);stroke:rgb(11,186,30);stroke-width:1px;"/>
        </g>
        <g transform="matrix(1,0,0,1.00047,131.351,128.906)">
            <path d="M88.992,85.917L94.548,102.433L83.436,102.433L88.992,85.917Z" style="fill:rgb(11,186,31);stroke:rgb(11,186,30);stroke-width:1px;"/>
        </g>
    </g>
    <g transform="matrix(1,0,0,1,57.1333,-172.211)">
        <g transform="matrix(1,0,0,1,118.275,137.209)">
            <path d="M102.068,134.707L102.068,85.917" style="fill:rgb(255,0,18);stroke:rgb(255,0,18);stroke-width:1px;"/>
        </g>
        <g transform="matrix(1,0,0,1.00047,131.351,128.906)">
            <path d="M88.992,85.917L94.548,102.433L83.436,102.433L88.992,85.917Z" style="fill:rgb(255,0,18);stroke:rgb(255,0,18);stroke-width:1px;"/>
        </g>
    </g>
    <g transform="matrix(-1,-1.22465e-16,1.22465e-16,-1,442.867,343.096)">
        <g transform="matrix(1,0,0,1,118.275,137.209)">
            <path d="M102.068,134.707L102.068,85.917" style="fill:rgb(0,9,1);stroke:rgb(0,12,1);stroke-width:1px;"/>
        </g>
        <g transform="matrix(1,0,0,1.00047,131.351,128.906)">
            <path d="M88.992,85.917L94.548,102.433L83.436,102.433L88.992,85.917Z" style="fill:rgb(0,9,1);stroke:rgb(0,12,1);stroke-width:1px;"/>
        </g>
    </g>
</svg>
