<?xml version="1.0" encoding="UTF-8" standalone="no"?>
<!DOCTYPE svg PUBLIC "-//W3C//DTD SVG 1.1//EN" "http://www.w3.org/Graphics/SVG/1.1/DTD/svg11.dtd">
<svg width="100%" height="100%" viewBox="0 0 500 500" version="1.1" xmlns="http://www.w3.org/2000/svg" xmlns:xlink="http://www.w3.org/1999/xlink" xml:space="preserve" xmlns:serif="http://www.serif.com/" style="fill-rule:evenodd;clip-rule:evenodd;stroke-linecap:round;stroke-linejoin:round;stroke-miterlimit:1.5;">
    <g transform="matrix(1,0,0,0.591446,118.275,192.244)">
        <rect x="35.968" y="134.707" width="132.199" height="22.351" style="fill:rgb(11,186,30);"/>
    </g>
    <g>
        <g transform="matrix(1,0,0,1,118.275,137.209)">
            <path d="M102.068,134.707L102.068,85.917" style="fill:rgb(11,186,31);stroke:rgb(11,186,30);stroke-width:1px;"/>
        </g>
        <g transform="matrix(1,0,0,1.00047,131.351,128.906)">
            <path d="M88.992,85.917L94.548,102.433L83.436,102.433L88.992,85.917Z" style="fill:rgb(11,186,31);stroke:rgb(11,186,30);stroke-width:1px;"/>
        </g>
    </g>
    <g transform="matrix(-1,-1.22465e-16,1.22465e-16,-1,440.687,362.255)">
        <g transform="matrix(1,0,0,1,118.275,137.209)">
            <path d="M102.068,134.707L102.068,85.917" style="fill:rgb(0,9,1);stroke:rgb(0,12,1);stroke-width:1px;"/>
        </g>
        <g transform="matrix(1,0,0,1.00047,131.351,128.906)">
            <path d="M88.992,85.917L94.548,102.433L83.436,102.433L88.992,85.917Z" style="fill:rgb(0,9,1);stroke:rgb(0,12,1);stroke-width:1px;"/>
        </g>
    </g>
    <g transform="matrix(1,0,0,1,7.56327,-19.877)">
        <g transform="matrix(1,0,0,1,-7.56327,36.8975)">
            <circle cx="220.343" cy="73.318" r="10.078"/>
        </g>
        <path d="M212.78,94.366C229.997,94.366 243.974,101.468 243.974,110.216C243.974,118.964 229.997,126.066 212.78,126.066C195.563,126.066 181.586,118.964 181.586,110.216C181.586,101.468 195.563,94.366 212.78,94.366ZM212.78,97.943C229.997,97.943 243.974,103.443 243.974,110.216C243.974,116.989 229.997,122.488 212.78,122.488C195.563,122.488 181.586,116.989 181.586,110.216C181.586,103.443 195.563,97.943 212.78,97.943Z"/>
    </g>
</svg>
