<?xml version="1.0" encoding="UTF-8" standalone="no"?>
<!DOCTYPE svg PUBLIC "-//W3C//DTD SVG 1.1//EN" "http://www.w3.org/Graphics/SVG/1.1/DTD/svg11.dtd">
<svg width="100%" height="100%" viewBox="0 0 500 100" version="1.1" xmlns="http://www.w3.org/2000/svg" xmlns:xlink="http://www.w3.org/1999/xlink" xml:space="preserve" xmlns:serif="http://www.serif.com/" style="fill-rule:evenodd;clip-rule:evenodd;stroke-linecap:round;stroke-linejoin:round;stroke-miterlimit:1.5;">
    <g transform="matrix(1,0,0,1,84.4736,-194.858)">
        <g transform="matrix(1,0,0,1,118.275,137.209)">
            <path d="M102.068,134.707L102.068,85.917" style="fill:rgb(11,186,31);stroke:rgb(11,186,30);stroke-width:1px;"/>
        </g>
        <g transform="matrix(1,0,0,1.00047,131.351,128.906)">
            <path d="M88.992,85.917L94.548,102.433L83.436,102.433L88.992,85.917Z" style="fill:rgb(11,186,31);stroke:rgb(11,186,30);stroke-width:1px;"/>
        </g>
    </g>
    <g transform="matrix(-1,-1.22465e-16,1.22465e-16,-1,415.526,295.717)">
        <g transform="matrix(1,0,0,1,118.275,137.209)">
            <path d="M102.068,134.707L102.068,85.917" style="fill:rgb(0,9,1);stroke:rgb(0,12,1);stroke-width:1px;"/>
        </g>
        <g transform="matrix(1,0,0,1.00047,131.351,128.906)">
            <path d="M88.992,85.917L94.548,102.433L83.436,102.433L88.992,85.917Z" style="fill:rgb(0,9,1);stroke:rgb(0,12,1);stroke-width:1px;"/>
        </g>
    </g>
    <g transform="matrix(1,0,0,1,77.6029,-196.005)">
        <text x="129.875px" y="250.893px" style="font-family:'ArialMT', 'Arial', sans-serif;font-size:29.583px;">-</text>
    </g>
    <g transform="matrix(1,0,0,1,94.7939,-187.541)">
        <text x="133.912px" y="243.729px" style="font-family:'ArialMT', 'Arial', sans-serif;font-size:29.583px;">2(-1)</text>
    </g>
</svg>
