<?xml version="1.0" encoding="UTF-8" standalone="no"?>
<!DOCTYPE svg PUBLIC "-//W3C//DTD SVG 1.1//EN" "http://www.w3.org/Graphics/SVG/1.1/DTD/svg11.dtd">
<svg width="100%" height="100%" viewBox="0 0 600 500" version="1.1" xmlns="http://www.w3.org/2000/svg" xmlns:xlink="http://www.w3.org/1999/xlink" xml:space="preserve" xmlns:serif="http://www.serif.com/" style="fill-rule:evenodd;clip-rule:evenodd;stroke-linecap:round;stroke-linejoin:round;stroke-miterlimit:1.5;">
    <g transform="matrix(0.649037,0.760757,-0.760757,0.649037,311.874,-243.642)">
        <path d="M340,25.564L360,60L320,60L340,25.564Z" style="fill:rgb(169,113,190);"/>
    </g>
    <g transform="matrix(0.645554,0,0,0.645554,386.711,-15.5299)">
        <path d="M175,112C175,114.76 172.76,117 170,117C168.257,117 166.721,116.106 165.826,114.752L175,112ZM175,111L165.37,113.889C165.131,113.306 165,112.668 165,112C165,112 175,109 175,109L175,111ZM165,111L175,108L175,106L165,109L165,111ZM165,104.82C162.012,103.09 160,99.858 160,96.16L160,96C160,90.481 164.481,86 170,86C175.519,86 180,90.481 180,96L180,96.16C180,99.858 177.988,103.09 175,104.82L175,105L174.177,105.247C173.345,105.63 172.451,105.903 171.515,106.045L165,108L165,104.82Z" style="fill:rgb(255,255,49);"/>
    </g>
    <g transform="matrix(2.18255,0,0,2.18255,-226.812,-64.0823)">
        <g transform="matrix(0.45818,-0,-0,0.45818,103.921,29.3612)">
            <path d="M307.442,194.302L297,197.823L303.24,188.741L307.442,194.302Z" style="fill:rgb(2,2,255);"/>
            <path d="M487.1,54.19C487.1,54.19 337.356,167.332 303.673,192.782" style="fill:none;stroke:rgb(2,2,255);stroke-width:1px;"/>
        </g>
    </g>
    <g transform="matrix(1,0,0,1,160,20)">
        <circle cx="200" cy="100" r="40" style="fill:rgb(255,165,165);"/>
    </g>
    <g transform="matrix(1.19444,0,0,1.19444,46.1111,-40.8333)">
        <rect x="20" y="200" width="360" height="10" style="fill:rgb(140,154,255);"/>
    </g>
    <g transform="matrix(1.03039,0,0,1.03039,152.059,1.35314)">
        <g transform="matrix(0.970506,-0,-0,0.970506,-147.574,-1.31323)">
            <path d="M409.795,121.478L399.353,125L405.593,115.917L409.795,121.478Z" style="fill:rgb(255,3,3);"/>
            <path d="M489.1,57.19C489.1,57.19 426.826,104.243 406.026,119.958" style="fill:none;stroke:rgb(255,3,3);stroke-width:1px;"/>
        </g>
    </g>
    <g transform="matrix(0.805793,0.936332,-2.03888,1.75463,391.381,-191.636)">
        <path d="M220,40L180,40L21.909,177.549L361.901,177.549L220,40Z" style="fill:none;stroke:rgb(128,125,125);stroke-width:0.48px;"/>
    </g>
    <g transform="matrix(0.24751,-0.0487435,0.0682574,0.346597,311.602,42.615)">
        <g transform="matrix(3.8894,0.546985,-0.765963,2.77747,-1179.3,-288.804)">
            <path d="M440.458,41.305L446.557,44.841L443.799,38.352L440.458,41.305Z" style="fill:rgb(130,127,127);"/>
            <path d="M443.014,40.831C439.13,36.436 433.443,30 433.443,30" style="fill:none;stroke:rgb(130,127,127);stroke-width:1px;"/>
        </g>
    </g>
    <g transform="matrix(0.24751,-0.0487435,0.0682574,0.346597,-91.8407,135.19)">
        <g transform="matrix(3.8894,0.546985,-0.765963,2.77747,460.756,-325.251)">
            <path d="M37.015,133.88L43.115,137.416L40.356,130.927L37.015,133.88Z" style="fill:rgb(130,127,127);"/>
            <path d="M39.571,133.406C35.687,129.011 30,122.575 30,122.575" style="fill:none;stroke:rgb(130,127,127);stroke-width:1px;"/>
        </g>
    </g>
    <g transform="matrix(0.24751,-0.0487435,0.0682574,0.346597,162.045,194.774)">
        <g transform="matrix(3.8894,0.546985,-0.765963,2.77747,-481.066,-629.617)">
            <path d="M290.9,193.464L297,197L294.242,190.512L290.9,193.464Z" style="fill:rgb(130,127,127);"/>
            <path d="M293.457,192.99C289.573,188.595 283.885,182.159 283.885,182.159" style="fill:none;stroke:rgb(130,127,127);stroke-width:1px;"/>
        </g>
    </g>
    <g transform="matrix(-0.247544,0.0485663,-0.0680092,-0.346646,536.85,129.322)">
        <g transform="matrix(-3.88995,-0.544996,0.763178,-2.77787,1989.62,651.82)">
            <path d="M407.993,130.54L401.896,127L404.65,133.49L407.993,130.54Z" style="fill:rgb(130,127,127);"/>
            <path d="M405.436,131.012C409.317,135.41 415,141.85 415,141.85" style="fill:none;stroke:rgb(130,127,127);stroke-width:1px;"/>
        </g>
    </g>
    <g transform="matrix(1,0,0,1,-36.873,10.336)">
        <text x="51.059px" y="109.664px" style="font-family:'ArialMT', 'Arial', sans-serif;font-size:16.667px;fill:rgb(127,127,127);">1.0</text>
    </g>
    <g transform="matrix(1,0,0,1,367.126,-83.7762)">
        <text x="51.059px" y="109.664px" style="font-family:'ArialMT', 'Arial', sans-serif;font-size:16.667px;fill:rgb(127,127,127);">0.0</text>
    </g>
    <g transform="matrix(1,0,0,1,382.076,48.3161)">
        <text x="20.023px" y="109.664px" style="font-family:'ArialMT', 'Arial', sans-serif;font-size:16.667px;fill:rgb(127,127,127);">0.1</text>
        <text x="20.023px" y="126.876px" style="font-family:'ArialMT', 'Arial', sans-serif;font-size:16.667px;fill:rgb(127,127,127);">value from</text>
        <text x="20.023px" y="144.088px" style="font-family:'ArialMT', 'Arial', sans-serif;font-size:16.667px;fill:rgb(127,127,127);">projected depth texture</text>
    </g>
    <g transform="matrix(1,0,0,1,179.32,16.3785)">
        <text x="-2.215px" y="109.664px" style="font-family:'ArialMT', 'Arial', sans-serif;font-size:16.667px;fill:rgb(127,127,127);">value computed</text>
        <text x="-30.006px" y="126.876px" style="font-family:'ArialMT', 'Arial', sans-serif;font-size:16.667px;fill:rgb(127,127,127);">when rendering this</text>
        <text x="-95.786px" y="144.088px" style="font-family:'ArialMT', 'Arial', sans-serif;font-size:16.667px;fill:rgb(127,127,127);">pixel of ﬂoor plane to canvas</text>
        <text x="92.284px" y="161.3px" style="font-family:'ArialMT', 'Arial', sans-serif;font-size:16.667px;fill:rgb(127,127,127);">0.3</text>
    </g>
</svg>
