<?xml version="1.0" encoding="UTF-8" standalone="no"?>
<!DOCTYPE svg PUBLIC "-//W3C//DTD SVG 1.1//EN" "http://www.w3.org/Graphics/SVG/1.1/DTD/svg11.dtd">
<svg width="100%" height="100%" viewBox="0 0 400 120" version="1.1" xmlns="http://www.w3.org/2000/svg" xmlns:xlink="http://www.w3.org/1999/xlink" xml:space="preserve" xmlns:serif="http://www.serif.com/" style="fill-rule:evenodd;clip-rule:evenodd;stroke-linecap:round;stroke-linejoin:round;stroke-miterlimit:1.5;">
    <g transform="matrix(0.604167,0,0,0.604167,-27.7708,-107.354)">
        <rect x="249" y="213" width="128" height="128" style="fill:none;stroke:rgb(255,0,0);stroke-width:6.62px;"/>
    </g>
    <g transform="matrix(0.604167,0,0,0.604167,-105.104,-107.354)">
        <rect x="249" y="213" width="128" height="128" style="fill:none;stroke:rgb(255,0,0);stroke-width:6.62px;"/>
    </g>
    <g transform="matrix(0.604167,0,0,0.604167,49.5625,-107.354)">
        <rect x="249" y="213" width="128" height="128" style="fill:none;stroke:rgb(255,0,0);stroke-width:6.62px;"/>
    </g>
    <g transform="matrix(0.604167,0,0,0.604167,126.896,-107.354)">
        <rect x="249" y="213" width="128" height="128" style="fill:none;stroke:rgb(255,0,0);stroke-width:6.62px;"/>
    </g>
    <g transform="matrix(1,0,0,1,-22.6667,-109.667)">
        <circle cx="68" cy="131" r="10" style="fill:rgb(255,193,193);stroke:black;stroke-width:0.25px;"/>
        <g transform="matrix(1,0,0,1,64.1347,136.011)">
            <text x="0px" y="0px" style="font-family:'Arial-BoldMT', 'Arial', sans-serif;font-weight:700;font-size:14px;">0</text>
        </g>
    </g>
    <g transform="matrix(1,0,0,1,-22.6667,-32.3333)">
        <circle cx="68" cy="131" r="10" style="fill:rgb(255,193,193);stroke:black;stroke-width:0.25px;"/>
        <g transform="matrix(1,0,0,1,64.1347,136.011)">
            <text x="0px" y="0px" style="font-family:'Arial-BoldMT', 'Arial', sans-serif;font-weight:700;font-size:14px;">1</text>
        </g>
    </g>
    <g transform="matrix(1,0,0,1,132,-109.667)">
        <circle cx="68" cy="131" r="10" style="fill:rgb(255,193,193);stroke:black;stroke-width:0.25px;"/>
        <g transform="matrix(1,0,0,1,64.1347,136.011)">
            <text x="0px" y="0px" style="font-family:'Arial-BoldMT', 'Arial', sans-serif;font-weight:700;font-size:14px;">4</text>
        </g>
    </g>
    <g transform="matrix(1,0,0,1,132,-32.3333)">
        <circle cx="68" cy="131" r="10" style="fill:rgb(255,193,193);stroke:black;stroke-width:0.25px;"/>
        <g transform="matrix(1,0,0,1,64.1347,136.011)">
            <text x="0px" y="0px" style="font-family:'Arial-BoldMT', 'Arial', sans-serif;font-weight:700;font-size:14px;">5</text>
        </g>
    </g>
    <g transform="matrix(1,0,0,1,286.667,-109.667)">
        <circle cx="68" cy="131" r="10" style="fill:rgb(255,193,193);stroke:black;stroke-width:0.25px;"/>
        <g transform="matrix(1,0,0,1,64.1347,136.011)">
            <text x="0px" y="0px" style="font-family:'Arial-BoldMT', 'Arial', sans-serif;font-weight:700;font-size:14px;">8</text>
        </g>
    </g>
    <g transform="matrix(1,0,0,1,286.667,-32.3333)">
        <circle cx="68" cy="131" r="10" style="fill:rgb(255,193,193);stroke:black;stroke-width:0.25px;"/>
        <g transform="matrix(1,0,0,1,64.1347,136.011)">
            <text x="0px" y="0px" style="font-family:'Arial-BoldMT', 'Arial', sans-serif;font-weight:700;font-size:14px;">9</text>
        </g>
    </g>
    <g transform="matrix(1,0,0,1,54.6667,-109.667)">
        <circle cx="68" cy="131" r="10" style="fill:rgb(255,193,193);stroke:black;stroke-width:0.25px;"/>
        <g transform="matrix(1,0,0,1,64.1347,136.011)">
            <text x="0px" y="0px" style="font-family:'Arial-BoldMT', 'Arial', sans-serif;font-weight:700;font-size:14px;">2</text>
        </g>
    </g>
    <g transform="matrix(1,0,0,1,54.6667,-32.3333)">
        <circle cx="68" cy="131" r="10" style="fill:rgb(255,193,193);stroke:black;stroke-width:0.25px;"/>
        <g transform="matrix(1,0,0,1,64.1347,136.011)">
            <text x="0px" y="0px" style="font-family:'Arial-BoldMT', 'Arial', sans-serif;font-weight:700;font-size:14px;">3</text>
        </g>
    </g>
    <g transform="matrix(1,0,0,1,209.333,-109.667)">
        <circle cx="68" cy="131" r="10" style="fill:rgb(255,193,193);stroke:black;stroke-width:0.25px;"/>
        <g transform="matrix(1,0,0,1,64.1347,136.011)">
            <text x="0px" y="0px" style="font-family:'Arial-BoldMT', 'Arial', sans-serif;font-weight:700;font-size:14px;">6</text>
        </g>
    </g>
    <g transform="matrix(1,0,0,1,209.333,-32.3333)">
        <circle cx="68" cy="131" r="10" style="fill:rgb(255,193,193);stroke:black;stroke-width:0.25px;"/>
        <g transform="matrix(1,0,0,1,64.1347,136.011)">
            <text x="0px" y="0px" style="font-family:'Arial-BoldMT', 'Arial', sans-serif;font-weight:700;font-size:14px;">7</text>
        </g>
    </g>
    <g transform="matrix(1,0,0,1,-22.6667,-109.667)">
        <g transform="matrix(0.707107,-0.707107,0.707107,0.707107,-100.056,97.7775)">
            <rect x="56.667" y="158.333" width="22.667" height="22.667" style="fill:rgb(193,255,198);stroke:black;stroke-width:0.25px;"/>
        </g>
        <g transform="matrix(1,0,0,1,58.8841,174.613)">
            <text x="0px" y="0px" style="font-family:'Arial-BoldMT', 'Arial', sans-serif;font-weight:700;font-size:14px;">B0</text>
        </g>
    </g>
    <g transform="matrix(1,0,0,1,132,-109.667)">
        <g transform="matrix(0.707107,-0.707107,0.707107,0.707107,-100.056,97.7775)">
            <rect x="56.667" y="158.333" width="22.667" height="22.667" style="fill:rgb(193,255,198);stroke:black;stroke-width:0.25px;"/>
        </g>
        <g transform="matrix(1,0,0,1,58.8841,174.613)">
            <text x="0px" y="0px" style="font-family:'Arial-BoldMT', 'Arial', sans-serif;font-weight:700;font-size:14px;">B1</text>
        </g>
    </g>
    <g transform="matrix(1,0,0,1,286.667,-109.667)">
        <g transform="matrix(0.707107,-0.707107,0.707107,0.707107,-100.056,97.7775)">
            <rect x="56.667" y="158.333" width="22.667" height="22.667" style="fill:rgb(193,255,198);stroke:black;stroke-width:0.25px;"/>
        </g>
        <g transform="matrix(1,0,0,1,58.8841,174.613)">
            <text x="0px" y="0px" style="font-family:'Arial-BoldMT', 'Arial', sans-serif;font-weight:700;font-size:14px;">B2</text>
        </g>
    </g>
</svg>
