<?xml version="1.0" encoding="UTF-8" standalone="no"?>
<!DOCTYPE svg PUBLIC "-//W3C//DTD SVG 1.1//EN" "http://www.w3.org/Graphics/SVG/1.1/DTD/svg11.dtd">
<svg width="100%" height="100%" viewBox="0 0 520 300" version="1.1" xmlns="http://www.w3.org/2000/svg" xmlns:xlink="http://www.w3.org/1999/xlink" xml:space="preserve" xmlns:serif="http://www.serif.com/" style="fill-rule:evenodd;clip-rule:evenodd;stroke-linecap:round;stroke-linejoin:round;stroke-miterlimit:1.5;">
    <g transform="matrix(1,0,0,1,-53,-82)">
        <rect x="249" y="213" width="128" height="128" style="fill:rgb(255,213,0);stroke:rgb(13,13,13);stroke-width:1px;"/>
    </g>
    <g transform="matrix(1,0,0,1,-181,-82)">
        <rect x="249" y="213" width="128" height="128" style="fill:rgb(191,255,0);stroke:rgb(13,13,13);stroke-width:1px;"/>
    </g>
    <g transform="matrix(1,0,0,1,75,-82)">
        <rect x="249" y="213" width="128" height="128" style="fill:rgb(255,148,0);stroke:rgb(13,13,13);stroke-width:1px;"/>
    </g>
    <g transform="matrix(1,0,0,1,4,-109)">
        <g transform="matrix(-0.692308,-8.47832e-17,8.47832e-17,-0.692308,216.615,373.462)">
            <path d="M128,213L140,239L116,239L128,213Z"/>
        </g>
        <path d="M128,208L128,172" style="fill:none;stroke:black;stroke-width:1.5px;"/>
    </g>
    <g transform="matrix(1,0,0,1,3.86018,-84)">
        <text x="83.21px" y="133.467px" style="font-family:'ArialMT', 'Arial', sans-serif;font-size:36px;">0.166</text>
    </g>
    <g transform="matrix(1,0,0,1,258.787,-109)">
        <g transform="matrix(-0.692308,-8.47832e-17,8.47832e-17,-0.692308,216.615,373.462)">
            <path d="M128,213L140,239L116,239L128,213Z"/>
        </g>
        <path d="M128,208L128,172" style="fill:none;stroke:black;stroke-width:1.5px;"/>
    </g>
    <g transform="matrix(1,0,0,1,130.787,-109)">
        <g transform="matrix(-0.692308,-8.47832e-17,8.47832e-17,-0.692308,216.615,373.462)">
            <path d="M128,213L140,239L116,239L128,213Z"/>
        </g>
        <path d="M128,208L128,172" style="fill:none;stroke:black;stroke-width:1.5px;"/>
    </g>
    <g transform="matrix(1,0,0,1,258.647,-84)">
        <text x="83.21px" y="133.467px" style="font-family:'ArialMT', 'Arial', sans-serif;font-size:36px;">0.833</text>
    </g>
    <g transform="matrix(1,0,0,1,130.647,-84)">
        <text x="103.232px" y="133.467px" style="font-family:'ArialMT', 'Arial', sans-serif;font-size:36px;">0.5</text>
    </g>
</svg>
