<?xml version="1.0" encoding="UTF-8" standalone="no"?>
<!DOCTYPE svg PUBLIC "-//W3C//DTD SVG 1.1//EN" "http://www.w3.org/Graphics/SVG/1.1/DTD/svg11.dtd">
<svg width="100%" height="100%" viewBox="0 0 520 400" version="1.1" xmlns="http://www.w3.org/2000/svg" xmlns:xlink="http://www.w3.org/1999/xlink" xml:space="preserve" xmlns:serif="http://www.serif.com/" style="fill-rule:evenodd;clip-rule:evenodd;stroke-linecap:round;stroke-linejoin:round;stroke-miterlimit:1.5;">
    <g transform="matrix(1,0,0,1,-7.01726,-68.8602)">
        <g transform="matrix(1,0,0,1,100,100)">
            <rect x="20" y="20" width="120" height="120" style="fill:rgb(255,255,0);stroke:black;stroke-width:0.83px;"/>
        </g>
        <g transform="matrix(1,0,0,1,100,220)">
            <rect x="20" y="20" width="120" height="120" style="fill:rgb(106,255,0);stroke:black;stroke-width:0.83px;"/>
        </g>
        <g transform="matrix(1,0,0,1,220,100)">
            <rect x="20" y="20" width="120" height="120" style="fill:rgb(200,255,0);stroke:black;stroke-width:0.83px;"/>
        </g>
        <g transform="matrix(1,0,0,1,220,220)">
            <rect x="20" y="20" width="120" height="120" style="fill:rgb(0,255,132);stroke:black;stroke-width:0.83px;"/>
        </g>
        <g transform="matrix(1,0,0,1,340,100)">
            <rect x="20" y="20" width="120" height="120" style="fill:rgb(157,255,0);stroke:black;stroke-width:0.83px;"/>
        </g>
        <g transform="matrix(1,0,0,1,340,220)">
            <rect x="20" y="20" width="120" height="120" style="fill:rgb(0,255,212);stroke:black;stroke-width:0.83px;"/>
        </g>
        <g transform="matrix(1,0,0,1,14.3879,5.68434e-14)">
            <g transform="matrix(1,0,0,1,0,-100)">
                <g transform="matrix(1,-0,-0,1,-7.37066,168.86)">
                    <path d="M95.183,55.202L107.371,51.14L95.183,47.077L95.183,55.202Z"/>
                    <path d="M97.621,51.14L67.371,51.14" style="fill:none;stroke:black;stroke-width:2.71px;stroke-linecap:butt;"/>
                </g>
            </g>
            <g transform="matrix(1,0,0,1,0,20)">
                <g transform="matrix(1,-0,-0,1,-7.37066,48.8602)">
                    <path d="M95.183,175.202L107.371,171.14L95.183,167.077L95.183,175.202Z"/>
                    <path d="M97.621,171.14L67.371,171.14" style="fill:none;stroke:black;stroke-width:2.71px;stroke-linecap:butt;"/>
                </g>
            </g>
            <g transform="matrix(1,0,0,1,0,140)">
                <g transform="matrix(1,-0,-0,1,-7.37066,-71.1398)">
                    <path d="M95.183,295.202L107.371,291.14L95.183,287.077L95.183,295.202Z"/>
                    <path d="M97.621,291.14L67.371,291.14" style="fill:none;stroke:black;stroke-width:2.71px;stroke-linecap:butt;"/>
                </g>
            </g>
            <g transform="matrix(1,0,0,1,-79.2241,-11.4526)">
                <text x="104.81px" y="138.812px" style="font-family:'ArialMT', 'Arial', sans-serif;font-size:20.833px;">2.0</text>
            </g>
            <g transform="matrix(1,0,0,1,-79.2241,108.547)">
                <text x="104.81px" y="138.812px" style="font-family:'ArialMT', 'Arial', sans-serif;font-size:20.833px;">1.0</text>
            </g>
            <g transform="matrix(1,0,0,1,-79.2241,226.162)">
                <text x="104.81px" y="138.812px" style="font-family:'ArialMT', 'Arial', sans-serif;font-size:20.833px;">0.0</text>
            </g>
        </g>
        <g transform="matrix(1,0,0,1,300.792,33.1667)">
            <text x="93.806px" y="138.812px" style="font-family:'ArialMT', 'Arial', sans-serif;font-size:16.667px;">2.5,1.5</text>
        </g>
        <g transform="matrix(1,0,0,1,0,-100)">
            <circle cx="180" cy="280" r="4.854"/>
        </g>
        <g transform="matrix(1,0,0,1,-0.14644,19.8536)">
            <circle cx="180" cy="280" r="4.854"/>
        </g>
        <g transform="matrix(1,0,0,1,120,-100)">
            <circle cx="180" cy="280" r="4.854"/>
        </g>
        <g transform="matrix(1,0,0,1,119.854,19.8536)">
            <circle cx="180" cy="280" r="4.854"/>
        </g>
        <g transform="matrix(1,0,0,1,240.146,-99.8536)">
            <circle cx="180" cy="280" r="4.854"/>
        </g>
        <g transform="matrix(1,0,0,1,240,20)">
            <circle cx="180" cy="280" r="4.854"/>
        </g>
    </g>
    <g transform="matrix(1,0,0,1,-13.6442,261.342)">
        <g transform="matrix(1,0,0,1,6.4502,-24.974)">
            <g transform="matrix(6.12323e-17,1,-1,6.12323e-17,340,-2.84217e-14)">
                <g transform="matrix(6.12323e-17,-1,1,6.12323e-17,-236.368,332.806)">
                    <path d="M108.744,308.556L112.806,296.368L116.869,308.556L108.744,308.556Z"/>
                    <path d="M112.806,336.368L112.806,306.118" style="fill:none;stroke:black;stroke-width:2.71px;stroke-linecap:butt;"/>
                </g>
            </g>
            <g transform="matrix(6.12323e-17,1,-1,6.12323e-17,460,-2.84217e-14)">
                <g transform="matrix(6.12323e-17,-1,1,6.12323e-17,-236.368,452.806)">
                    <path d="M228.744,308.556L232.806,296.368L236.869,308.556L228.744,308.556Z"/>
                    <path d="M232.806,336.368L232.806,306.118" style="fill:none;stroke:black;stroke-width:2.71px;stroke-linecap:butt;"/>
                </g>
            </g>
            <g transform="matrix(6.12323e-17,1,-1,6.12323e-17,580,-2.84217e-14)">
                <g transform="matrix(6.12323e-17,-1,1,6.12323e-17,-236.368,572.806)">
                    <path d="M348.744,308.556L352.806,296.368L356.869,308.556L348.744,308.556Z"/>
                    <path d="M352.806,336.368L352.806,306.118" style="fill:none;stroke:black;stroke-width:2.71px;stroke-linecap:butt;"/>
                </g>
            </g>
            <g transform="matrix(6.12323e-17,1,-1,6.12323e-17,700,-2.84217e-14)">
                <g transform="matrix(6.12323e-17,-1,1,6.12323e-17,-236.368,692.806)">
                    <path d="M468.744,308.556L472.806,296.368L476.869,308.556L468.744,308.556Z"/>
                    <path d="M472.806,336.368L472.806,306.118" style="fill:none;stroke:black;stroke-width:2.71px;stroke-linecap:butt;"/>
                </g>
            </g>
        </g>
        <g transform="matrix(1,0,0,1,6.3913,44.8678)">
            <g transform="matrix(1,0,0,1,0.775946,-88.8125)">
                <text x="104.81px" y="138.812px" style="font-family:'ArialMT', 'Arial', sans-serif;font-size:20.833px;">0.0</text>
            </g>
            <g transform="matrix(1,0,0,1,120.776,-88.8125)">
                <text x="104.81px" y="138.812px" style="font-family:'ArialMT', 'Arial', sans-serif;font-size:20.833px;">1.0</text>
            </g>
            <g transform="matrix(1,0,0,1,240.776,-88.8125)">
                <text x="104.81px" y="138.812px" style="font-family:'ArialMT', 'Arial', sans-serif;font-size:20.833px;">2.0</text>
            </g>
            <g transform="matrix(1,0,0,1,360.894,-88.8125)">
                <text x="104.81px" y="138.812px" style="font-family:'ArialMT', 'Arial', sans-serif;font-size:20.833px;">3.0</text>
            </g>
        </g>
    </g>
</svg>
